<?xml version="1.0" encoding="utf-8"?>
<!-- Generator: Adobe Illustrator 20.1.0, SVG Export Plug-In . SVG Version: 6.00 Build 0)  -->
<svg version="1.1" id="Calque_1" xmlns="http://www.w3.org/2000/svg" xmlns:xlink="http://www.w3.org/1999/xlink" x="0px" y="0px"
	 viewBox="0 0 283.5 283.5" style="enable-background:new 0 0 283.5 283.5;" xml:space="preserve">
<style type="text/css">
	.st0{fill:none;stroke:#FFFFFF;stroke-width:0.5;stroke-miterlimit:10;}
</style>
<g>
	<path class="st0" d="M159.8,107.3l79.5,53.4c7.7,5.2,7.6,16.5-0.2,21.6L159.5,234c-7.1,4.6-16.3,4.6-23.5,0l-79.6-51.7
		c-7.8-5.1-7.9-16.4-0.2-21.6l79.5-53.4C143,102.5,152.5,102.5,159.8,107.3z"/>
	<path class="st0" d="M147.8,129.5c-23.8,0-43.1,11.6-43.1,25.9v21.6c0,14.3,19.3,25.9,43.1,25.9c23.8,0,43.1-11.6,43.1-25.9v-21.6
		C190.9,141,171.6,129.5,147.8,129.5z"/>
	<path class="st0" d="M126.2,177.7c-12.9-4.5-21.6-12.8-21.6-22.4"/>
	<path class="st0" d="M190.9,155.3c0,14.3-19.3,25.9-43.1,25.9"/>
</g>
</svg>
