<?xml version="1.0" encoding="utf-8"?>
<!-- Generator: Adobe Illustrator 20.1.0, SVG Export Plug-In . SVG Version: 6.00 Build 0)  -->
<svg version="1.1" id="Calque_1" xmlns="http://www.w3.org/2000/svg" xmlns:xlink="http://www.w3.org/1999/xlink" x="0px" y="0px"
	 viewBox="0 0 283.5 283.5" style="enable-background:new 0 0 283.5 283.5;" xml:space="preserve">
<style type="text/css">
	.st0{fill:#FFFFFF;}
	.st1{fill:none;}
</style>
<g>
	<path class="st0" d="M105.6,44.2c-37.2,0-67.3,19.6-67.3,43.8c0,15.7,12.8,29.4,31.8,37.1l-8.3,32.9l27.9-27.6
		c5.1,0.8,10.4,1.3,15.9,1.3c37.2,0,67.3-19.6,67.3-43.8C173,63.8,142.8,44.2,105.6,44.2z"/>
	<path class="st1" d="M76.4,94c-2.2,0-3.9,1.7-3.9,4c0,2.3,1.8,4,3.9,4c2.2,0,4-1.7,4-4C80.4,95.7,78.6,94,76.4,94z M91,94
		c-2.2,0-4,1.7-4,4c0,2.3,1.8,4,4,4c2.2,0,4-1.7,4-4C95.1,95.7,93.3,94,91,94z M106.5,94c-2.2,0-4,1.7-4,4c0,2.3,1.8,4,4,4
		c2.2,0,4-1.7,4-4C110.5,95.7,108.8,94,106.5,94z M108.9,65.2c-3.4,0-7.2,1.2-11,4.4l3.2,4.5c2.4-2.1,4.5-2.9,6.7-2.9
		c2.1,0,3.3,1,3.3,2.6c0,4-9.5,5.4-9.5,11.6c0,1.7,0.6,3.2,1.5,4.4l6.1-2c-0.4-0.6-0.5-1.2-0.5-1.8c0-4.1,10.4-5.8,10.4-13
		C118.9,68.8,115.6,65.2,108.9,65.2z"/>
	<path class="st0" d="M182.6,86.2c-44.9,0-81.3,25.8-81.3,57.7c0,21.5,16.5,40.2,41,50.1l-8.5,33.8l28.2-28.1
		c6.6,1.2,13.5,1.9,20.6,1.9c44.9,0,81.3-25.8,81.3-57.7C263.9,112.1,227.5,86.2,182.6,86.2z"/>
	<ellipse class="st1" cx="182.6" cy="143.9" rx="73.5" ry="49.8"/>
</g>
<g>
	<polygon class="st0" points="195.2,180 198.5,180 198.5,182.5 201.1,182.5 201.1,185.9 198.5,185.9 198.5,188.5 195.2,188.5 
		195.2,185.9 192.6,185.9 192.6,182.5 195.2,182.5 	"/>
	<path class="st0" d="M142.8,180.8v16.9l73.3-3.5v-13.4c0-7.8-6-10.9-9.2-11.4c-10.2-1.8-16-6.5-17.6-7.9v-5.6c0.5,0,1-0.1,1.3-0.1
		c5.6-0.6,9.9-2.8,12.7-6.4c3.1-4,4.3-9.5,3.4-16.5c-1.5-11.3-7.7-28.2-18.8-28.2c-1.3,0-2.5,0.2-3.8,0.7c-2.1-0.7-4.3-1.1-6.4-1.1
		h0c-13.6,0-23.9,14.8-25.7,28.6c-0.9,7,0.2,12.5,3.4,16.5c2.8,3.6,7.1,5.8,12.7,6.4c0.3,0,0.8,0.1,1.2,0.1v5.7
		c-1.6,1.4-7.3,6-17.6,7.9C148.8,169.9,142.8,173.1,142.8,180.8z M175.9,180.5h7.2c-1.1,2.7-2.3,5.2-3.6,7.5
		C178.2,185.7,177,183.2,175.9,180.5z M170.8,164.8c1-0.8,1.5-1.4,1.6-1.4l0.4-0.5v-6.4c2,1,4.3,1.6,6.7,1.6c2.4,0,4.5-0.5,6.5-1.5
		v6.4l0.4,0.5c0.1,0.1,0.6,0.6,1.6,1.4c-1,4.3-2.3,8.5-3.7,12.4h-9.8C173.1,173.3,171.9,169.1,170.8,164.8z M166.5,143.1
		c-0.1,0-0.1,0-0.2,0c-1.1,0-2.3-1.6-3.3-4.3c-1-3-1.2-6.2-0.1-6.6c0.1,0,0.2,0,0.3,0c0.3,0,0.7,0.2,1.1,0.5
		c-0.1-0.7,15.8-3.9,21.7-12.8c5.3,4,8,8.5,8.6,13.1c0.4-0.4,0.8-0.6,1.2-0.6c0.1,0,0.2,0,0.3,0c1.1,0.4,0.9,3.6-0.1,6.6
		c-0.9,2.7-2.2,4.3-3.3,4.3c-0.1,0-0.2,0-0.3,0c-2.5,6.9-6.7,11.3-12.9,11.3C173.2,154.6,168.9,150.2,166.5,143.1z M191.4,152.3
		c1.4-1.7,2.6-3.7,3.6-6.1c1.4-0.7,3-2.4,4.2-6c1.9-5.7,1.2-9.7-1.9-10.8c-1.4-4.5-4.5-8.6-9.2-12.2l-2.8-2.2l-2,3
		c-3.8,5.7-13.4,9-17.5,10.4c-0.5,0.2-0.9,0.3-1.4,0.5c-0.4-0.1-0.8-0.2-1.2-0.2c-0.5,0-0.9,0.1-1.3,0.2c-1,0.3-1.9,1.1-2.4,2.2
		c-1.4,2.7-0.2,7,0.4,8.7c1.2,3.5,2.7,5.2,4.1,5.9c1,2.6,2.3,4.7,3.8,6.5c-7.8-1.2-13.9-6.2-12.2-19c1.5-11.4,10.1-25.7,22.4-25.7
		c2.1,0,4.3,0.4,6.5,1.3c1.3-0.6,2.5-0.9,3.7-0.9c8,0,14,13.7,15.5,25.3C205.2,146.1,199.1,151.1,191.4,152.3z M212.8,194.3h-29
		c-0.8-1-1.6-2-2.3-3.2c3.9-6.5,7.3-15,9.6-24.3c3.3,2.1,8.3,4.5,15.4,5.8c0.1,0,6.4,1.2,6.4,8.2V194.3z M146.1,180.8
		c0-6.9,6.4-8.1,6.4-8.2c7-1.3,12.1-3.7,15.3-5.8c2.7,11,6.9,20.9,11.7,27.5h-33.4V180.8z"/>
</g>
</svg>
