<?xml version="1.0" encoding="utf-8"?>
<!-- Generator: Adobe Illustrator 20.1.0, SVG Export Plug-In . SVG Version: 6.00 Build 0)  -->
<svg version="1.1" id="Calque_1" xmlns="http://www.w3.org/2000/svg" xmlns:xlink="http://www.w3.org/1999/xlink" x="0px" y="0px"
	 viewBox="0 0 283.5 283.5" style="enable-background:new 0 0 283.5 283.5;" xml:space="preserve">
<style type="text/css">
	.st0{fill:#FFFFFF;}
</style>
<g>
	<path class="st0" d="M117.1,147.7c0.1,2.4,2.1,4.3,4.4,4.2l25.8-0.7c1.1,0,2-0.4,2.7-1.1c1.2-0.8,2-2.1,2-3.7v-48
		c0-2.4-1.9-4.3-4.3-4.3s-4.3,1.9-4.3,4.3v44.2l-22.2,0.6C118.9,143.4,117,145.3,117.1,147.7z"/>
	<path class="st0" d="M64,145.9c0,1.9,0,3.9,0.2,5.8l8.5,0.1c-0.1-1.1-0.1-2.2-0.2-3.4l18.3,0.2l0.1-5.6l-18.3-0.2
		c0.6-11.5,3.8-22.3,9.1-31.9l15.8,9.3l2.8-4.8l-15.7-9.3c6.1-9.4,14.2-17.2,23.8-23.1l9,16l4.9-2.7l-9-15.9
		c9.7-4.9,20.6-7.8,32.1-8l-0.2,18.3l5.6,0.1l0.2-18.3c11.5,0.6,22.3,3.8,31.9,9.1l-9.3,15.8l4.8,2.8l9.3-15.7
		c9.4,6.1,17.2,14.2,23.1,23.8l-16,9l2.7,4.9l15.9-9c4.9,9.7,7.8,20.6,8,32.1l-18.3-0.2l-0.1,5.6l18.3,0.2
		c-0.6,11.5-3.8,22.3-9.1,31.9l-15.8-9.3l-2.8,4.8l15.7,9.3c-6.1,9.4-14.2,17.2-23.8,23.1l-9-16l-4.9,2.7l9,15.9
		c-9.7,4.9-20.6,7.8-32.1,8l0.2-18.3l-5.6-0.1l-0.2,18.3c-1.1-0.1-2.2-0.2-3.3-0.3l-0.1,8.4c2.1,0.2,4.3,0.3,6.4,0.3
		c45.8,0.5,83.3-36.2,83.8-82c0.5-45.8-36.2-83.3-82-83.8C102,63.4,64.5,100.1,64,145.9z"/>
	<path class="st0" d="M81.8,207.2v-2.8c0-1-5.5-1.8-12.3-1.8c-1.5,0-2.9,0-4.2,0.1v-16.1h-0.7c0,0,0-0.1,0-0.1c0-0.1,0-0.1-0.1-0.2
		c0,0,0.1-0.1,0.1-0.2c0-0.1,0-0.1-0.1-0.2c0,0,0.1-0.1,0.1-0.2c0-0.1,0-0.1-0.1-0.2c0,0,0.1-0.1,0.1-0.2c0-0.1,0-0.1-0.1-0.2
		c0,0,0.1-0.1,0.1-0.2c0-0.1,0-0.1-0.1-0.2c0,0,0.1-0.1,0.1-0.2c0-0.1,0-0.1-0.1-0.2c0,0,0.1-0.1,0.1-0.2c0-0.1,0-0.1-0.1-0.2
		c0,0,0.1-0.1,0.1-0.2c0-0.1,0-0.1-0.1-0.2c0,0,0.1-0.1,0.1-0.2c0-0.1,0-0.1-0.1-0.2c0,0,0.1-0.1,0.1-0.2c0-0.1,0-0.1,0-0.2
		c0,0,0.1-0.1,0.1-0.2c0-0.1,0-0.1,0-0.2c0,0,0.1-0.1,0.1-0.1c0-0.1,0-0.1,0-0.2c0,0,0.1-0.1,0.1-0.1c0-0.1,0-0.1,0-0.2
		c0,0,0.1-0.1,0.1-0.1c0-0.1,0-0.1,0-0.2c0,0,0.1-0.1,0.1-0.1c0-0.1,0-0.1,0-0.2c0,0,0.1-0.1,0.1-0.1c0-0.1,0-0.1,0-0.2
		c0,0,0.1-0.1,0.1-0.1c0-0.1,0-0.1,0-0.2c0,0,0.1-0.1,0.1-0.1c0-0.1,0-0.1,0-0.2c0,0,0.1-0.1,0.1-0.1c0-0.1,0-0.1,0-0.2
		c0,0,0.1-0.1,0.1-0.1c0-0.1,0-0.1,0-0.2c0.1,0,0.1-0.1,0.1-0.1c0-0.1,0-0.1,0-0.2c0.1,0,0.1-0.1,0.1-0.1c0-0.1,0-0.1,0-0.2
		c0.1,0,0.1-0.1,0.1-0.1s0-0.1,0-0.2c0.1,0,0.1-0.1,0.1-0.1c0-0.1,0-0.1,0-0.2c0.1,0,0.1-0.1,0.1-0.1c0-0.1,0-0.1,0-0.2
		c0.1,0,0.1-0.1,0.1-0.1c0-0.1,0-0.1,0-0.2c0.1,0,0.1-0.1,0.1-0.1c0-0.1,0-0.1,0-0.2c0.1,0,0.1-0.1,0.1-0.1c0-0.1,0-0.1,0-0.2
		c0.1,0,0.1-0.1,0.1-0.1c0-0.1,0-0.1,0-0.2c0.1,0,0.1-0.1,0.1-0.1c0-0.1,0-0.1,0-0.2c0.1,0,0.1-0.1,0.1-0.1c0-0.1,0-0.1,0-0.2
		c0.1,0,0.1-0.1,0.1-0.1c0-0.1,0-0.1,0-0.2c0.1,0,0.1-0.1,0.1-0.1c0-0.1,0-0.1,0-0.2c0.1,0,0.1-0.1,0.1-0.1c0-0.1,0-0.1,0-0.2
		c0.1,0,0.1-0.1,0.1-0.1c0-0.1,0-0.1,0-0.2c0.1,0,0.1,0,0.1-0.1c0-0.1,0-0.1,0-0.2c0.1,0,0.1,0,0.1-0.1c0-0.1,0-0.1,0-0.2
		c0.1,0,0.1,0,0.1-0.1c0-0.1,0-0.1,0-0.2c0.1,0,0.1,0,0.1-0.1c0-0.1,0-0.1,0-0.2c0.1,0,0.1,0,0.1-0.1s0-0.1,0-0.2
		c0.1,0,0.1,0,0.1-0.1c0,0,0.1-0.1,0-0.2c0.1,0,0.1,0,0.1-0.1c0,0,0.1-0.1,0-0.2c0.1,0,0.1,0,0.2-0.1c0,0,0.1-0.1,0-0.2
		c0.1,0,0.1,0,0.2-0.1c0,0,0.1-0.1,0.1-0.2c0.1,0,0.1,0,0.2-0.1c0,0,0.1-0.1,0.1-0.2c0.1,0,0.1,0,0.2-0.1c0,0,0.1-0.1,0.1-0.2
		c0.1,0,0.1,0,0.2-0.1c0,0,0.1-0.1,0.1-0.2c0.1,0,0.1,0,0.2-0.1s0.1-0.1,0.1-0.2c0.1,0,0.1,0,0.2-0.1c0,0,0.1-0.1,0.1-0.2
		c0.1,0,0.1,0,0.2-0.1c0,0,0.1-0.1,0.1-0.2c0.1,0,0.1,0,0.2-0.1c0,0,0.1-0.1,0.1-0.2c0.1,0,0.1,0,0.2-0.1c0,0,0.1-0.1,0.1-0.2
		c0.1,0,0.1,0,0.2-0.1c0,0,0.1-0.1,0.1-0.2c0.1,0,0.1,0,0.2-0.1c0,0,0.1-0.1,0.1-0.2c0.1,0,0.1,0,0.2-0.1c0,0,0.1-0.1,0.1-0.2
		c0.1,0,0.1,0,0.2,0c0,0,0.1-0.1,0.1-0.2c0.1,0,0.1,0,0.2,0c0,0,0.1-0.1,0.1-0.1c0.1,0,0.1,0,0.2,0c0,0,0.1-0.1,0.1-0.1
		c0.1,0,0.1,0,0.2,0c0.1,0,0.1-0.1,0.1-0.1c0.1,0,0.1,0,0.2,0c0.1,0,0.1-0.1,0.1-0.1c0.1,0,0.1,0,0.2,0c0.1,0,0.1-0.1,0.1-0.1
		c0.1,0,0.1,0,0.2,0c0.1,0,0.1-0.1,0.1-0.1c0.1,0,0.1,0,0.2,0s0.1-0.1,0.1-0.1c0.1,0,0.1,0,0.2,0c0.1,0,0.1-0.1,0.1-0.1
		c0.1,0,0.1,0,0.2,0c0.1,0,0.1-0.1,0.1-0.1c0.1,0,0.1,0,0.2,0c0.1,0,0.1-0.1,0.1-0.1c0.1,0,0.1,0,0.2,0c0.1,0,0.1-0.1,0.1-0.1
		c0.1,0,0.1,0,0.2,0c0.1,0,0.1-0.1,0.1-0.1c0.1,0,0.1,0,0.2,0c0.1,0,0.1-0.1,0.1-0.1c0.1,0,0.1,0,0.2,0c0.1,0,0.1-0.1,0.1-0.1
		c0.1,0,0.1,0,0.2,0s0.1-0.1,0.1-0.1c0.1,0,0.1,0,0.2,0c0.1,0,0.1-0.1,0.1-0.1c0,0,0.1,0,0.1,0l2.8,2.8c-1.6,4.5-0.7,9.7,2.9,13.3
		c0,0,4.5-3.2,9.6-8.3c4.7-4.7,8.3-9.6,8.3-9.6c-3.6-3.6-8.8-4.6-13.3-2.9l-3.1-3.1l-0.7,0.7l-0.2-0.2l0.5-0.5
		c0.1-0.1,0.1-0.4,0-0.5c-0.1-0.1-0.4-0.1-0.5,0l-0.5,0.5l-0.1-0.1l0.5-0.5c0.1-0.1,0.1-0.4,0-0.5c-0.1-0.1-0.4-0.1-0.5,0l-0.5,0.5
		l-0.1-0.1l0.5-0.5c0.1-0.1,0.1-0.4,0-0.5c-0.1-0.1-0.4-0.1-0.5,0l-0.5,0.5l-0.1-0.1l0.5-0.5c0.1-0.1,0.1-0.4,0-0.5
		c-0.1-0.1-0.4-0.1-0.5,0l-0.5,0.5l-0.1-0.1l0.5-0.5c0.1-0.1,0.1-0.4,0-0.5c-0.1-0.1-0.4-0.1-0.5,0l-0.5,0.5l-0.1-0.1l0.4-0.4
		c0.1-0.1,0.1-0.4,0-0.5c-0.1-0.1-0.4-0.1-0.5,0l-0.5,0.5c-0.1,0-0.2,0-0.3,0l0.3-0.3c0.1-0.1,0.1-0.3,0-0.5c-0.1-0.1-0.4-0.2-0.5,0
		l-0.9,0.9l-0.1-0.1l0.6-0.6c0.1-0.1,0.1-0.3-0.1-0.5c-0.1-0.1-0.3-0.2-0.5-0.1l-0.6,0.6c-0.4-0.3-1-0.2-1.3,0.2l-3,3
		c-0.4,0.4-0.4,0.9-0.2,1.3l-0.6,0.6c-0.1,0.1-0.1,0.3,0.1,0.5c0.1,0.1,0.3,0.2,0.5,0.1l0.6-0.6l0.1,0.1l-0.9,0.9
		c-0.1,0.1-0.1,0.3,0,0.5c0.1,0.1,0.4,0.2,0.5,0l0.3-0.3c0,0.1,0,0.2,0,0.3l-0.5,0.5c-0.1,0.1-0.1,0.4,0,0.5c0.1,0.1,0.4,0.1,0.5,0
		l0.4-0.4l0.1,0.1l-0.5,0.5c0,0,0,0,0,0c-0.1,0-0.1,0-0.2,0c-0.1,0-0.1,0.1-0.1,0.2c-0.1,0-0.2-0.1-0.2,0c-0.1,0-0.1,0.1-0.1,0.2
		c-0.1,0-0.2-0.1-0.2,0c-0.1,0-0.1,0.1-0.1,0.2c-0.1,0-0.2-0.1-0.2,0c-0.1,0-0.1,0.1-0.1,0.2c-0.1,0-0.2,0-0.2,0
		c-0.1,0-0.1,0.1-0.1,0.2c-0.1,0-0.2,0-0.2,0c-0.1,0-0.1,0.1-0.1,0.2c-0.1,0-0.2,0-0.2,0c-0.1,0-0.1,0.1-0.1,0.2c-0.1,0-0.2,0-0.2,0
		c-0.1,0-0.1,0.1-0.1,0.2c-0.1,0-0.2,0-0.2,0c-0.1,0-0.1,0.1-0.1,0.2c-0.1,0-0.2,0-0.2,0c-0.1,0.1-0.1,0.1-0.1,0.2
		c-0.1,0-0.2,0-0.2,0c-0.1,0.1-0.1,0.1-0.1,0.2c-0.1,0-0.2,0-0.2,0c-0.1,0.1-0.1,0.1-0.1,0.2c-0.1,0-0.2,0-0.2,0
		c-0.1,0.1-0.1,0.1-0.1,0.2c-0.1,0-0.2,0-0.2,0c-0.1,0.1-0.1,0.1-0.1,0.2c-0.1,0-0.2,0-0.2,0s-0.1,0.1-0.1,0.2c-0.1,0-0.2,0-0.2,0
		c-0.1,0.1-0.1,0.1-0.1,0.2c-0.1,0-0.2,0-0.2,0c-0.1,0.1-0.1,0.1-0.1,0.2c-0.1,0-0.2,0-0.2,0c-0.1,0.1-0.1,0.1-0.1,0.2
		c-0.1,0-0.2,0-0.2,0.1c-0.1,0.1-0.1,0.1-0.1,0.2c-0.1,0-0.2,0-0.2,0.1c-0.1,0.1-0.1,0.2-0.1,0.2c-0.1,0-0.2,0-0.2,0.1
		s-0.1,0.2,0,0.2c-0.1,0-0.2,0-0.2,0.1c-0.1,0.1-0.1,0.2,0,0.2c-0.1,0-0.2,0-0.2,0.1c-0.1,0.1-0.1,0.2,0,0.2c-0.1,0-0.2,0-0.2,0.1
		c-0.1,0.1-0.1,0.2,0,0.2c-0.1,0-0.2,0-0.2,0.1c-0.1,0.1-0.1,0.2,0,0.2c-0.1,0-0.2,0-0.2,0.1c-0.1,0.1-0.1,0.2,0,0.2
		c-0.1,0-0.2,0-0.2,0.1c-0.1,0.1-0.1,0.2,0,0.2c-0.1,0-0.2,0-0.2,0.1c-0.1,0.1-0.1,0.2,0,0.2c-0.1,0-0.2,0-0.2,0.1
		c-0.1,0.1-0.1,0.2,0,0.2c-0.1,0-0.2,0-0.2,0.1c0,0.1-0.1,0.2,0,0.2c-0.1,0-0.2,0-0.2,0.1c0,0.1,0,0.2,0,0.2c-0.1,0-0.2,0-0.2,0.1
		c0,0.1,0,0.2,0,0.2c-0.1,0-0.2,0-0.2,0.1c0,0.1,0,0.2,0,0.2c-0.1,0-0.2,0-0.2,0.1c0,0.1,0,0.2,0,0.2c-0.1,0-0.2,0-0.2,0.1
		c0,0.1,0,0.2,0,0.2c-0.1,0-0.2,0-0.2,0.1c0,0.1,0,0.2,0,0.2c-0.1,0-0.2,0-0.2,0.1c0,0.1,0,0.2,0,0.2c-0.1,0-0.2,0-0.2,0.1
		c0,0.1,0,0.2,0,0.2c-0.1,0-0.2,0-0.2,0.1c0,0.1,0,0.2,0,0.2c-0.1,0-0.2,0.1-0.2,0.1c0,0.1,0,0.2,0,0.2c-0.1,0-0.2,0.1-0.2,0.1
		c0,0.1,0,0.2,0,0.2c-0.1,0-0.2,0.1-0.2,0.1c0,0.1,0,0.2,0,0.2c-0.1,0-0.2,0.1-0.2,0.1c0,0.1,0,0.2,0,0.2c-0.1,0-0.2,0.1-0.2,0.1
		c0,0.1,0,0.2,0,0.2c-0.1,0-0.2,0.1-0.2,0.1c0,0.1,0,0.2,0,0.2c-0.1,0-0.2,0.1-0.2,0.2c0,0.1,0,0.2,0.1,0.2c-0.1,0-0.2,0.1-0.2,0.2
		c0,0.1,0,0.2,0.1,0.2c-0.1,0-0.1,0.1-0.2,0.2c0,0.1,0,0.2,0.1,0.2c-0.1,0-0.1,0.1-0.2,0.2c0,0.1,0,0.2,0.1,0.2
		c-0.1,0-0.1,0.1-0.2,0.2c0,0.1,0,0.2,0.1,0.2c-0.1,0-0.1,0.1-0.2,0.2c0,0.1,0,0.2,0.1,0.2c-0.1,0-0.1,0.1-0.2,0.2
		c0,0.1,0,0.2,0.1,0.2c-0.1,0-0.1,0.1-0.2,0.2c0,0.1,0,0.2,0.1,0.2c-0.1,0-0.1,0.1-0.2,0.2c0,0.1,0,0.2,0.1,0.2
		c-0.1,0-0.1,0.1-0.2,0.2c0,0.1,0,0.2,0.1,0.2c-0.1,0-0.1,0.1-0.2,0.2c0,0.1,0,0.2,0.1,0.2c-0.1,0-0.1,0.1-0.1,0.2
		c0,0.1,0,0.2,0.1,0.2c-0.1,0-0.1,0.1-0.1,0.2c0,0.1,0,0.2,0.1,0.2c-0.1,0-0.1,0.1-0.1,0.2c0,0.1,0,0.2,0.1,0.2
		c-0.1,0-0.1,0.1-0.1,0.2c0,0.1,0,0.2,0.1,0.2c-0.1,0-0.1,0.1-0.1,0.2c0,0.1,0,0.2,0.1,0.2c-0.1,0-0.1,0.1-0.1,0.2
		c0,0.1,0,0.2,0.1,0.2c-0.1,0-0.1,0.1-0.1,0.2c0,0.1,0,0.2,0.1,0.2c-0.1,0-0.1,0.1-0.1,0.2c0,0.1,0,0.2,0.1,0.2
		c-0.1,0-0.1,0.1-0.1,0.2c0,0.1,0.1,0.2,0.1,0.2c-0.1,0-0.1,0.1-0.1,0.2c0,0.1,0.1,0.2,0.1,0.2c-0.1,0-0.1,0.1-0.1,0.2
		c0,0.1,0.1,0.2,0.1,0.2c0,0,0,0-0.1,0h-1.1v17c-1,0.3-1.6,0.6-1.6,0.9v2.8c0,1,5.5,1.8,12.3,1.8S81.8,208.2,81.8,207.2z"/>
	<path class="st0" d="M95.9,197.2l-23,19.1l1.7-0.2c0.1,0,6.5-1,10.2-0.8c6.8,0.2,10.6,2.1,12.5,3.6c-2.3-1-6.9-2.4-14.6-2.3
		c-3,0-6.9,0.7-8.4,1l-0.1,0l-2.3,2v1.2h1.6l25.4,1.1l32.9,0.4v0h0.2l0.2,0l0,0h0v-1.2h0l-2.2-11.6l-1.2-11.9l-0.1-0.8l-0.7,0.5
		c0,0-0.9,0.7-4.1,0.7c-0.7,0-1.4,0-2.2-0.1c-1.1-0.1-2.1-0.1-3.1-0.1c-4.3,0-7,0.7-7.7,0.9c-0.9-0.3-5.2-1.7-8.3-1.6
		c-2.8,0.1-6.7,0.1-6.7,0.1L95.9,197.2z M129.8,218.6c-1.8-0.8-6.3-2.8-11.1-3.1c-3.5-0.2-7,0.2-9.9,0.8c3-1,6.6-1.6,10.3-1.4
		c4.8,0.3,9.2,1.7,10.7,2.2L129.8,218.6z M111.4,199.5c0.7-0.2,3.3-0.9,7.4-0.9c1,0,2,0,3,0.1c0.8,0.1,1.6,0.1,2.3,0.1
		c2.1,0,3.3-0.3,4-0.5l1.4,13.6l0.3,4.2c-1.8-0.6-5.9-1.9-10.5-2.1c-8.1-0.5-15.3,3.1-18.3,4.8L111.4,199.5z M102.8,198l0.3,0
		c2.6,0,6,1,7.3,1.4l-10.9,19.9c-1.2-1.4-5.2-4.8-14.6-5.1c-0.2,0-0.5,0-0.8,0c-2.6,0-6,0.4-8,0.6l20.1-16.7
		C97.1,198.1,100.4,198.1,102.8,198z"/>
</g>
</svg>
