<?xml version="1.0" encoding="utf-8"?>
<!-- Generator: Adobe Illustrator 20.1.0, SVG Export Plug-In . SVG Version: 6.00 Build 0)  -->
<svg version="1.1" id="Calque_1" xmlns="http://www.w3.org/2000/svg" xmlns:xlink="http://www.w3.org/1999/xlink" x="0px" y="0px"
	 viewBox="0 0 283.5 283.5" style="enable-background:new 0 0 283.5 283.5;" xml:space="preserve">
<style type="text/css">
	.st0{fill:#FFFFFF;}
</style>
<g>
	<path class="st0" d="M128.5,135.4c2.6,0,4.6-2.1,4.6-4.6V79.4c0-2.6-2.1-4.6-4.6-4.6c-2.6,0-4.6,2.1-4.6,4.6v51.4
		C123.8,133.4,125.9,135.4,128.5,135.4z"/>
	<path class="st0" d="M38.9,131.6c0.3,49,40.2,88.4,89.2,88.1c2.3,0,4.6-0.1,6.9-0.3l-0.1-9c-1.2,0.1-2.3,0.2-3.5,0.3l-0.1-19.5
		l-6,0l0.1,19.6c-12.3-0.3-24-3.4-34.3-8.8l9.7-17l-5.2-3l-9.7,17c-10.2-6.3-18.9-14.7-25.3-24.8l16.9-9.9l-3-5.2l-16.9,9.9
		c-5.6-10.2-8.9-21.8-9.5-34.1l19.5-0.1l0-6L47.9,129c0.3-12.3,3.4-24,8.8-34.3l17,9.7l3-5.2l-17-9.7c6.3-10.2,14.7-18.9,24.8-25.3
		L94.3,81l5.2-3L89.5,61c10.2-5.6,21.8-8.9,34.1-9.5l0.1,19.5l6,0l-0.1-19.6c12.3,0.3,24,3.4,34.3,8.8l-9.7,17l5.2,3l9.7-17
		c10.2,6.3,18.9,14.7,25.3,24.8l-16.9,9.9l3,5.2l16.9-9.9c5.6,10.2,8.9,21.8,9.5,34.1l-19.5,0.1l0,6l19.6-0.1c0,1.2-0.1,2.4-0.2,3.6
		l9-0.1c0.1-2,0.2-4.1,0.2-6.2c-0.3-49-40.2-88.4-89.2-88.1C78,42.7,38.6,82.6,38.9,131.6z"/>
	<path class="st0" d="M251.6,142.3c-1.8,0-7.4-1.3-7.4,21.3c0,19.4,2.3,25.8,4.6,26.9l-0.8,22.5c0,1.1,1.6,1.9,3.5,1.9
		c2,0,3.5-0.9,3.5-1.9v-5V170v-25.7C255.2,143.1,253.6,142.3,251.6,142.3z"/>
	<path class="st0" d="M162,146.1c0-1.9-1.9-3.3-1.9-3v17.5c0,0.9-0.6,1.7-1.4,1.7c-0.8,0-1.4-0.8-1.4-1.7v-17.5c0-0.3-2.2-0.3-2.2,0
		v17.5c0,0.9-0.6,1.7-1.4,1.7c-0.8,0-1.4-0.8-1.4-1.7v-17.5c0-0.3-2-0.3-2,0v17.5c0,0.9-0.6,1.7-1.4,1.7c-0.8,0-1.4-0.8-1.4-1.7
		v-17.5c0-0.3-1.8,1-1.8,3c0,0,0,8,0,12.8c0,5.2-1.2,11.4-1.2,11.4c0,2,7,5.3,7,5.3l-1.2,36.2c0,1.3,2.3,2.3,3.6,2.3s3.8-1,3.8-2.3
		l-1.4-36.2c0,0,7-3.4,7-5.3c0,0-1-5.5-1.1-11.6C161.9,153.4,162,146.1,162,146.1z"/>
	<path class="st0" d="M203.5,146.3c-18.5,0-33.5,15-33.5,33.5s15,33.5,33.5,33.5c18.5,0,33.5-15,33.5-33.5S222,146.3,203.5,146.3z
		 M203.5,200.4c-11.3,0-20.5-9.2-20.5-20.5c0-11.3,9.2-20.5,20.5-20.5c11.3,0,20.5,9.2,20.5,20.5
		C224.1,191.2,214.9,200.4,203.5,200.4z"/>
</g>
</svg>
