<?xml version="1.0" encoding="utf-8"?>
<!-- Generator: Adobe Illustrator 20.1.0, SVG Export Plug-In . SVG Version: 6.00 Build 0)  -->
<svg version="1.1" id="Calque_1" xmlns="http://www.w3.org/2000/svg" xmlns:xlink="http://www.w3.org/1999/xlink" x="0px" y="0px"
	 viewBox="0 0 283.5 283.5" style="enable-background:new 0 0 283.5 283.5;" xml:space="preserve">
<style type="text/css">
	.st0{fill:#FFFFFF;}
</style>
<g>
	<path class="st0" d="M156.9,151.5l-11.1,14.8c-1.2,1.6-0.9,3.9,0.7,5.1c1.6,1.2,3.9,0.9,5.1-0.7l13-17.2"/>
	<path class="st0" d="M165.1,73.6c-1.7,0-3.4,0.1-5,0.2v7.4c1-0.1,1.9-0.1,2.9-0.2v15.9h4.9V81c10,0.4,19.5,3.1,27.8,7.6l-8,13.8
		l4.2,2.4l7.9-13.8c8.2,5.2,15.1,12.2,20.3,20.5l-13.8,8l2.4,4.2l13.8-7.9c4.4,8.4,7,17.8,7.3,27.9H214v4.9h15.9
		c-0.4,10-3.1,19.5-7.6,27.8l-13.8-8l-2.4,4.2l13.8,7.9c-5.2,8.2-12.2,15.1-20.5,20.3l-8-13.8l-4.2,2.4l7.9,13.8
		c-8.4,4.4-17.8,7-27.9,7.3v-15.9h-4.9v15.9c-10-0.4-19.5-3.1-27.8-7.6l8-13.8l-4.2-2.4l-7.9,13.8c-8.2-5.2-15.1-12.2-20.3-20.5
		l13.8-8l-2.4-4.2l-13.8,7.9c-4.4-8.4-7-17.8-7.3-27.9h15.9v-4.9h-15.9c0-1,0.1-1.9,0.2-2.8h-7.3c-0.1,1.9-0.2,3.7-0.2,5.6
		c0,39.8,32.3,72.1,72.1,72.1s72.1-32.3,72.1-72.1C237.2,105.9,205,73.6,165.1,73.6z"/>
	<path class="st0" d="M160.7,156.5c2.1,0,3.8-1.7,3.8-3.8v-42c0-2.1-1.7-3.8-3.8-3.8c-2.1,0-3.8,1.7-3.8,3.8v42
		C156.9,154.8,158.6,156.5,160.7,156.5z"/>
	<path class="st0" d="M140.8,74.8c-1.5,0-6-1-6,17.4c0,15.8,1.9,21.1,3.8,22l-0.7,18.3c0,0.9,1.3,1.6,2.9,1.6c1.6,0,2.9-0.7,2.9-1.6
		v-4.1v-31v-21C143.7,75.5,142.4,74.8,140.8,74.8z"/>
	<path class="st0" d="M67.7,77.9c0-1.6-1.5-2.7-1.5-2.5v14.3c0,0.8-0.5,1.4-1.2,1.4c-0.6,0-1.2-0.6-1.2-1.4V75.5
		c0-0.3-1.8-0.3-1.8,0v14.3c0,0.8-0.5,1.4-1.2,1.4c-0.6,0-1.2-0.6-1.2-1.4V75.5c0-0.3-1.7-0.3-1.7,0v14.3c0,0.8-0.5,1.4-1.2,1.4
		c-0.6,0-1.2-0.6-1.2-1.4V75.5c0-0.3-1.5,0.9-1.5,2.5c0,0,0,6.5,0,10.5c0,4.2-1,9.3-1,9.3c0,1.6,5.7,4.4,5.7,4.4l-1,29.5
		c0,1.1,1.9,1.9,3,1.9s3.1-0.9,3.1-1.9L62.9,102c0,0,5.7-2.8,5.7-4.4c0,0-0.8-4.5-0.9-9.5C67.6,83.9,67.7,77.9,67.7,77.9z"/>
	<path class="st0" d="M101.6,78.1c-15.1,0-27.3,12.2-27.3,27.3s12.2,27.3,27.3,27.3c15.1,0,27.3-12.2,27.3-27.3
		S116.7,78.1,101.6,78.1z M101.6,122.2c-9.3,0-16.8-7.5-16.8-16.8c0-9.3,7.5-16.8,16.8-16.8c9.3,0,16.8,7.5,16.8,16.8
		C118.3,114.7,110.8,122.2,101.6,122.2z"/>
</g>
</svg>
