<?xml version="1.0" encoding="utf-8"?>
<!-- Generator: Adobe Illustrator 20.1.0, SVG Export Plug-In . SVG Version: 6.00 Build 0)  -->
<svg version="1.1" id="Calque_1" xmlns="http://www.w3.org/2000/svg" xmlns:xlink="http://www.w3.org/1999/xlink" x="0px" y="0px"
	 viewBox="0 0 841.9 595.3" style="enable-background:new 0 0 841.9 595.3;" xml:space="preserve">
<metadata><?xpacket begin="﻿" id="W5M0MpCehiHzreSzNTczkc9d"?>
<x:xmpmeta xmlns:x="adobe:ns:meta/" x:xmptk="Adobe XMP Core 5.6-c132 79.159284, 2016/04/19-13:13:40        ">
   <rdf:RDF xmlns:rdf="http://www.w3.org/1999/02/22-rdf-syntax-ns#">
      <rdf:Description rdf:about=""
            xmlns:ExtensisFontSense="http://www.extensis.com/meta/FontSense/">
         <ExtensisFontSense:slug>
            <rdf:Bag>
               <rdf:li>
                  <rdf:Description>
                     <ExtensisFontSense:Family>Korolev</ExtensisFontSense:Family>
                     <ExtensisFontSense:Version>1.000</ExtensisFontSense:Version>
                     <ExtensisFontSense:OutlineFileSize>0</ExtensisFontSense:OutlineFileSize>
                     <ExtensisFontSense:KerningChecksum>0</ExtensisFontSense:KerningChecksum>
                     <ExtensisFontSense:Foundry>--</ExtensisFontSense:Foundry>
                     <ExtensisFontSense:FontKind>OpenType - PS</ExtensisFontSense:FontKind>
                     <ExtensisFontSense:Checksum>1449272732</ExtensisFontSense:Checksum>
                     <ExtensisFontSense:PostScriptName>Korolev-Medium</ExtensisFontSense:PostScriptName>
                     <ExtensisFontSense:FontSense_1.2_Checksum>1449272732</ExtensisFontSense:FontSense_1.2_Checksum>
                  </rdf:Description>
               </rdf:li>
            </rdf:Bag>
         </ExtensisFontSense:slug>
      </rdf:Description>
   </rdf:RDF>
</x:xmpmeta>
                                                                                                    
                                                                                                    
                                                                                                    
                                                                                                    
                                                                                                    
                                                                                                    
                                                                                                    
                                                                                                    
                                                                                                    
                                                                                                    
                                                                                                    
                                                                                                    
                                                                                                    
                                                                                                    
                                                                                                    
                                                                                                    
                                                                                                    
                                                                                                    
                                                                                                    
                                                                                                    
                           
<?xpacket end="w"?></metadata>
<style type="text/css">
	.st0{fill:#D3E5E0;}
	.st1{fill:#515151;}
	.st2{fill:#FFFFFF;}
	.st3{fill:#009872;}
	.st4{font-family:'Korolev-Medium';}
	.st5{font-size:24.0509px;}
</style>
<path class="st0" d="M196,128.6c0,9.1-7.3,16.4-16.4,16.4h-71.2c-9.1,0-16.4-7.3-16.4-16.4V57.4c0-9.1,7.3-16.4,16.4-16.4h71.2
	c9.1,0,16.4,7.3,16.4,16.4V128.6z"/>
<path class="st0" d="M196,264.6c0,9.1-7.3,16.4-16.4,16.4h-71.2c-9.1,0-16.4-7.3-16.4-16.4v-71.2c0-9.1,7.3-16.4,16.4-16.4h71.2
	c9.1,0,16.4,7.3,16.4,16.4V264.6z"/>
<path class="st0" d="M196,407.6c0,9.1-7.3,16.4-16.4,16.4h-71.2c-9.1,0-16.4-7.3-16.4-16.4v-71.2c0-9.1,7.3-16.4,16.4-16.4h71.2
	c9.1,0,16.4,7.3,16.4,16.4V407.6z"/>
<path class="st0" d="M332,128.6c0,9.1-7.3,16.4-16.4,16.4h-71.2c-9.1,0-16.4-7.3-16.4-16.4V57.4c0-9.1,7.3-16.4,16.4-16.4h71.2
	c9.1,0,16.4,7.3,16.4,16.4V128.6z"/>
<path class="st0" d="M332,264.6c0,9.1-7.3,16.4-16.4,16.4h-71.2c-9.1,0-16.4-7.3-16.4-16.4v-71.2c0-9.1,7.3-16.4,16.4-16.4h71.2
	c9.1,0,16.4,7.3,16.4,16.4V264.6z"/>
<path class="st0" d="M332,407.6c0,9.1-7.3,16.4-16.4,16.4h-71.2c-9.1,0-16.4-7.3-16.4-16.4v-71.2c0-9.1,7.3-16.4,16.4-16.4h71.2
	c9.1,0,16.4,7.3,16.4,16.4V407.6z"/>
<path class="st0" d="M476,128.6c0,9.1-7.3,16.4-16.4,16.4h-71.2c-9.1,0-16.4-7.3-16.4-16.4V57.4c0-9.1,7.3-16.4,16.4-16.4h71.2
	c9.1,0,16.4,7.3,16.4,16.4V128.6z"/>
<path class="st0" d="M476,264.6c0,9.1-7.3,16.4-16.4,16.4h-71.2c-9.1,0-16.4-7.3-16.4-16.4v-71.2c0-9.1,7.3-16.4,16.4-16.4h71.2
	c9.1,0,16.4,7.3,16.4,16.4V264.6z"/>
<path class="st0" d="M476,407.6c0,9.1-7.3,16.4-16.4,16.4h-71.2c-9.1,0-16.4-7.3-16.4-16.4v-71.2c0-9.1,7.3-16.4,16.4-16.4h71.2
	c9.1,0,16.4,7.3,16.4,16.4V407.6z"/>
<path class="st0" d="M622,128.6c0,9.1-7.3,16.4-16.4,16.4h-71.2c-9.1,0-16.4-7.3-16.4-16.4V57.4c0-9.1,7.3-16.4,16.4-16.4h71.2
	c9.1,0,16.4,7.3,16.4,16.4V128.6z"/>
<path class="st0" d="M622,264.6c0,9.1-7.3,16.4-16.4,16.4h-71.2c-9.1,0-16.4-7.3-16.4-16.4v-71.2c0-9.1,7.3-16.4,16.4-16.4h71.2
	c9.1,0,16.4,7.3,16.4,16.4V264.6z"/>
<path class="st0" d="M622,407.6c0,9.1-7.3,16.4-16.4,16.4h-71.2c-9.1,0-16.4-7.3-16.4-16.4v-71.2c0-9.1,7.3-16.4,16.4-16.4h71.2
	c9.1,0,16.4,7.3,16.4,16.4V407.6z"/>
<path class="st0" d="M768,128.6c0,9.1-7.3,16.4-16.4,16.4h-71.2c-9.1,0-16.4-7.3-16.4-16.4V57.4c0-9.1,7.3-16.4,16.4-16.4h71.2
	c9.1,0,16.4,7.3,16.4,16.4V128.6z"/>
<path class="st0" d="M768,264.6c0,9.1-7.3,16.4-16.4,16.4h-71.2c-9.1,0-16.4-7.3-16.4-16.4v-71.2c0-9.1,7.3-16.4,16.4-16.4h71.2
	c9.1,0,16.4,7.3,16.4,16.4V264.6z"/>
<path class="st0" d="M768,407.6c0,9.1-7.3,16.4-16.4,16.4h-71.2c-9.1,0-16.4-7.3-16.4-16.4v-71.2c0-9.1,7.3-16.4,16.4-16.4h71.2
	c9.1,0,16.4,7.3,16.4,16.4V407.6z"/>
<path class="st0" d="M196,562.6c0,9.1-7.3,16.4-16.4,16.4h-71.2c-9.1,0-16.4-7.3-16.4-16.4v-71.2c0-9.1,7.3-16.4,16.4-16.4h71.2
	c9.1,0,16.4,7.3,16.4,16.4V562.6z"/>
<path class="st0" d="M332,562.6c0,9.1-7.3,16.4-16.4,16.4h-71.2c-9.1,0-16.4-7.3-16.4-16.4v-71.2c0-9.1,7.3-16.4,16.4-16.4h71.2
	c9.1,0,16.4,7.3,16.4,16.4V562.6z"/>
<path class="st0" d="M476,562.6c0,9.1-7.3,16.4-16.4,16.4h-71.2c-9.1,0-16.4-7.3-16.4-16.4v-71.2c0-9.1,7.3-16.4,16.4-16.4h71.2
	c9.1,0,16.4,7.3,16.4,16.4V562.6z"/>
<path class="st0" d="M622,562.6c0,9.1-7.3,16.4-16.4,16.4h-71.2c-9.1,0-16.4-7.3-16.4-16.4v-71.2c0-9.1,7.3-16.4,16.4-16.4h71.2
	c9.1,0,16.4,7.3,16.4,16.4V562.6z"/>
<path class="st0" d="M768,562.6c0,9.1-7.3,16.4-16.4,16.4h-71.2c-9.1,0-16.4-7.3-16.4-16.4v-71.2c0-9.1,7.3-16.4,16.4-16.4h71.2
	c9.1,0,16.4,7.3,16.4,16.4V562.6z"/>
<g>
	<path class="st1" d="M141.6,114.6l-14.3-14.3l31-31l14.3,14.3L141.6,114.6z M130.1,100.3l11.4,11.4l28.1-28.1l-11.4-11.4
		L130.1,100.3z"/>
	
		<rect x="104.8" y="122.8" transform="matrix(0.7071 -0.7071 0.7071 0.7071 -52.9545 119.7413)" class="st1" width="26.5" height="2"/>
	<path class="st1" d="M130,118.4l-6.6-6.6l9.1-9.1l6.6,6.6L130,118.4z M126.3,111.9l3.7,3.7l6.3-6.3l-3.7-3.7L126.3,111.9z"/>
	<polygon class="st1" points="166.7,71.5 165.2,70.1 179.4,55.9 180.8,57.4 	"/>
	<polygon class="st1" points="190.9,68.9 172.9,50.9 174.4,49.5 192.3,67.5 	"/>
	<polygon class="st1" points="171.8,76.6 170.4,75.2 184.5,61.1 185.9,62.5 	"/>
	<polygon class="st1" points="157.5,71.5 153.7,67.6 155.1,66.2 159,70.1 	"/>
	<polygon class="st1" points="174.2,88.2 170.4,84.3 171.8,82.9 175.6,86.7 	"/>
	<polygon class="st1" points="140.8,98.5 135.7,93.3 137.1,91.9 142.3,97 	"/>
	<polygon class="st1" points="147.3,92 142.1,86.9 143.5,85.5 148.7,90.6 	"/>
	<polygon class="st1" points="153.7,85.6 148.5,80.5 150,79 155.1,84.2 	"/>
</g>
<g>
	<path class="st1" d="M704.8,118.4c-3.9,0-7-3.1-7-7c0-3.9,3.1-7,7-7c3.9,0,7,3.1,7,7C711.8,115.3,708.7,118.4,704.8,118.4z
		 M704.8,106.5c-2.7,0-5,2.2-5,5c0,2.7,2.2,5,5,5c2.7,0,5-2.2,5-5C709.8,108.7,707.6,106.5,704.8,106.5z"/>
	<path class="st1" d="M704.8,97.9c-3.9,0-7-3.1-7-7s3.1-7,7-7c3.9,0,7,3.1,7,7S708.7,97.9,704.8,97.9z M704.8,85.9c-2.7,0-5,2.2-5,5
		s2.2,5,5,5c2.7,0,5-2.2,5-5S707.6,85.9,704.8,85.9z"/>
	<path class="st1" d="M704.8,77.4c-3.9,0-7-3.1-7-7s3.1-7,7-7c3.9,0,7,3.1,7,7S708.7,77.4,704.8,77.4z M704.8,65.4c-2.7,0-5,2.2-5,5
		s2.2,5,5,5c2.7,0,5-2.2,5-5S707.6,65.4,704.8,65.4z"/>
	<path class="st1" d="M725.3,118.4c-3.9,0-7-3.1-7-7c0-3.9,3.1-7,7-7c3.9,0,7,3.1,7,7C732.3,115.3,729.2,118.4,725.3,118.4z
		 M725.3,106.5c-2.7,0-5,2.2-5,5c0,2.7,2.2,5,5,5s5-2.2,5-5C730.3,108.7,728.1,106.5,725.3,106.5z"/>
	<path class="st1" d="M725.3,97.9c-3.9,0-7-3.1-7-7s3.1-7,7-7c3.9,0,7,3.1,7,7S729.2,97.9,725.3,97.9z M725.3,85.9c-2.7,0-5,2.2-5,5
		s2.2,5,5,5s5-2.2,5-5S728.1,85.9,725.3,85.9z"/>
	<path class="st1" d="M725.3,77.4c-3.9,0-7-3.1-7-7s3.1-7,7-7c3.9,0,7,3.1,7,7S729.2,77.4,725.3,77.4z M725.3,65.4c-2.7,0-5,2.2-5,5
		s2.2,5,5,5s5-2.2,5-5S728.1,65.4,725.3,65.4z"/>
	<path class="st1" d="M730.3,127h-30.5c-5.8,0-10.6-4.7-10.6-10.6V65.4c0-5.8,4.7-10.6,10.6-10.6h30.5c5.8,0,10.6,4.7,10.6,10.6
		v51.1C740.9,122.3,736.2,127,730.3,127z M699.8,56.8c-4.7,0-8.5,3.8-8.5,8.5v51.1c0,4.7,3.8,8.5,8.5,8.5h30.5
		c4.7,0,8.5-3.8,8.5-8.5V65.4c0-4.7-3.8-8.5-8.5-8.5H699.8z"/>
</g>
<g>
	<path class="st1" d="M570.3,394c-1.4,0-2.7-0.4-3.9-1.2l-23-15c-1.3-0.9-2.1-2.3-2.2-3.9c0-1.6,0.8-3.1,2.1-4l23-15.4
		c2.5-1.6,5.6-1.6,8.1,0l23,15.4c1.3,0.9,2.1,2.4,2.1,4c0,1.6-0.8,3.1-2.2,3.9l-23,15C573,393.7,571.6,394,570.3,394z M570.3,355.4
		c-1,0-2,0.3-2.9,0.9l-23,15.4c-0.8,0.5-1.2,1.4-1.2,2.3s0.5,1.8,1.2,2.3l23,15c1.7,1.1,4,1.1,5.7,0l23-15c0.8-0.5,1.2-1.3,1.2-2.3
		c0-0.9-0.4-1.8-1.2-2.3l-23-15.4C572.3,355.7,571.3,355.4,570.3,355.4z"/>
	<path class="st1" d="M570.3,384c-7.6,0-13.5-3.7-13.5-8.5v-6.2c0-4.8,5.9-8.5,13.5-8.5c7.6,0,13.5,3.7,13.5,8.5v6.2
		C583.7,380.3,577.8,384,570.3,384z M570.3,362.8c-6.2,0-11.5,3-11.5,6.5v6.2c0,3.5,5.3,6.5,11.5,6.5s11.5-3,11.5-6.5v-6.2
		C581.7,365.8,576.5,362.8,570.3,362.8z"/>
	<path class="st1" d="M563.7,376.7c-4.3-1.5-6.9-4.3-6.9-7.4h2c0,2.2,2.1,4.3,5.6,5.5L563.7,376.7z"/>
	<path class="st1" d="M570.3,377.8v-2c6.2,0,11.5-3,11.5-6.5h2C583.7,374.1,577.8,377.8,570.3,377.8z"/>
</g>
<g>
	<path class="st1" d="M555.4,255.4c-3.6,0-7-1.4-9.5-3.9c-2.5-2.5-3.9-5.9-3.9-9.5s1.4-7,3.9-9.5l24.7-24.7c2.5-2.5,5.9-3.9,9.5-3.9
		c3.6,0,7,1.4,9.5,3.9c2.5,2.5,3.9,5.9,3.9,9.5c0,3.6-1.4,7-3.9,9.5l-24.7,24.7C562.4,254,559,255.4,555.4,255.4z M580.1,205.7
		c-2.9,0-5.9,1.1-8.1,3.4l-24.7,24.7c-4.5,4.5-4.5,11.7,0,16.2c4.5,4.5,11.8,4.5,16.2,0l24.7-24.7c4.5-4.5,4.5-11.7,0-16.2
		C586,206.9,583,205.7,580.1,205.7z"/>
	<path class="st1" d="M577.3,237.4c-3.2,0-7.7-2.8-11.1-6.3c-4.6-4.6-8-11-5.3-13.8l1.4,1.4c-1.2,1.2,0.3,5.9,5.3,10.9
		c5,5,9.8,6.5,10.9,5.3l1.4,1.4C579.2,237.1,578.3,237.4,577.3,237.4z"/>
	<path class="st1" d="M549.4,247.9c-3.4-3.4-3.4-8.6,0-12l0.9-0.9l1.4,1.4l-0.9,0.9c-2.5,2.5-2.5,6.5,0,9.1L549.4,247.9z"/>
</g>
<g>
	<path class="st1" d="M269.6,402.4l-6.2-7l-9.1,1L254,396c0,0-5.3-5.8-8.9-9.8l-0.6-0.6l39.3-50.3l39.2,50.2l-6.5,10.1l-5.8-0.9
		l-8.6,5.9l-9.7,1.8l-0.2,0l-12.8-2.3L269.6,402.4z M279.5,397.9l13,2.4l9.1-1.7l8.7-6.1l5.3,0.8l5-7.8l-36.8-47l-36.7,46.9
		c3,3.3,6.8,7.6,8,8.8l9.1-1l6.1,6.9L279.5,397.9z"/>
	<rect x="256.3" y="401.5" class="st1" width="2" height="3.8"/>
	<rect x="239.3" y="393.9" class="st1" width="2" height="3.8"/>
	<rect x="265.8" y="412.9" class="st1" width="2" height="3.8"/>
	<rect x="279.1" y="405.3" class="st1" width="2" height="3.8"/>
	<rect x="290.5" y="407.2" class="st1" width="2" height="3.8"/>
	<rect x="301.9" y="405.3" class="st1" width="2" height="3.8"/>
	<rect x="322.8" y="395.8" class="st1" width="2" height="3.8"/>
	<rect x="313.3" y="407.2" class="st1" width="2" height="3.8"/>
</g>
<g>
	<path class="st1" d="M264.2,274.4h-20.9l-4.2-4.2v-12.9l-3.7-5.5v-3.1h36.7v3.1l-3.7,5.5v12.9L264.2,274.4z M244.1,272.4h19.3
		l3.1-3.1v-12.7l3.7-5.5v-0.5h-32.7v0.5l3.7,5.5v12.7L244.1,272.4z"/>
	<path class="st1" d="M267.4,263.5h-12v-18.2c0-2.1,0.9-4.2,2.3-5.7l1.6-1.6l1.4,1.4l-1.6,1.6c-1.1,1.1-1.8,2.7-1.8,4.2v16.2h10
		V263.5z"/>
	<rect x="240" y="261.4" class="st1" width="11" height="2"/>
	<polygon class="st1" points="279.2,233.5 272.8,227 274.2,225.6 280.6,232.1 	"/>
	<polygon class="st1" points="274,238.7 265,229.6 266.4,228.2 275.5,237.2 	"/>
	<polygon class="st1" points="268.9,223.2 259.8,214.1 261.3,212.7 270.3,221.7 	"/>
	<polygon class="st1" points="261.1,225.8 254.7,219.3 256.1,217.9 262.6,224.3 	"/>
	<path class="st1" d="M267,242l-15.6-15.6l13.6-13.6c1.1-1.1,1.3-3.6,1-5.6l-0.8-8.3c-0.4-4.1,1.1-8.1,4-11l1.4,1.4
		c-2.5,2.5-3.7,5.9-3.4,9.4l0.8,8.2c0.3,2.4,0.1,5.6-1.6,7.3l-12.2,12.2l12.8,12.8l12.2-12.2c1.7-1.7,4.9-1.9,7.3-1.6l8.2,0.8
		c3.5,0.3,6.9-0.9,9.4-3.4l15.7-15.7l1.4,1.4l-15.7,15.7c-2.9,2.9-7,4.4-11,4l-8.2-0.8c-2-0.3-4.5-0.1-5.7,1L267,242z"/>
</g>
<g>
	<path class="st1" d="M722.6,403.1h-15c-1.9,0-3.5-1.6-3.5-3.5v-13.7c0-3.1,3.4-5.7,5.8-7.6l1.1-0.9h8.2l1.1,0.9
		c2.4,1.9,5.8,4.6,5.8,7.6v13.7C726.1,401.5,724.5,403.1,722.6,403.1z M711.7,379.4l-0.5,0.4c-2,1.6-5,4-5,6v13.7
		c0,0.8,0.7,1.5,1.5,1.5h15c0.8,0,1.5-0.7,1.5-1.5v-13.7c0-2.1-3-4.5-5-6l-0.5-0.4H711.7z"/>
	<path class="st1" d="M725.1,365.7h-7.2v-3.5c0-4.1-0.3-8.2-0.7-12l-0.4-3c-0.1-0.8-0.8-1.4-1.6-1.4c-0.8,0-1.5,0.6-1.6,1.4l-0.4,3
		c-0.5,3.8-0.7,8-0.7,12v3.5h-7.2v-2h5.2v-1.5c0-4.1,0.3-8.4,0.7-12.3l0.4-3c0.2-1.8,1.8-3.2,3.6-3.2c1.9,0,3.4,1.4,3.6,3.2l0.4,3
		c0.5,3.9,0.7,8.1,0.7,12.3v1.5h5.2V365.7z"/>
	<polygon class="st1" points="724.8,379.4 705.3,379.4 705.3,369.9 710.1,369.9 710.1,371.9 707.4,371.9 707.4,377.4 722.8,377.4 
		722.8,371.9 720.1,371.9 720.1,369.9 724.8,369.9 	"/>
	<rect x="708.8" y="369.9" class="st1" width="3.7" height="2"/>
	<rect x="717.6" y="369.9" class="st1" width="3.7" height="2"/>
	<rect x="707.8" y="364.7" class="st1" width="2" height="6.2"/>
	<rect x="720.3" y="364.7" class="st1" width="2" height="6.2"/>
	<path class="st1" d="M719.8,396.9h-15.7v-9.5h15.7V396.9z M706.1,394.8h11.7v-5.5h-11.7V394.8z"/>
</g>
<g>
	<path class="st1" d="M419.7,543c-2.8,0-5.6-1.1-7.7-3.2h0l-4.2-4.2c-4.2-4.2-4.2-11.1,0-15.4l22.4-27.1l6.3-6.4l25.1,25.1l-6.3,6.3
		l-28.1,21.7C425.2,542,422.4,543,419.7,543z M413.4,538.4c3.5,3.5,9.1,3.5,12.5,0l28.1-21.7l4.8-4.8l-22.3-22.3l-4.9,4.9
		l-22.4,27.1c-3.5,3.5-3.5,9.1-0.1,12.6L413.4,538.4z"/>
	<path class="st1" d="M407.1,548.9l-8.4-8.4l8.4-8.4l8.4,8.4L407.1,548.9z M401.6,540.5l5.6,5.5l5.5-5.5l-5.5-5.6L401.6,540.5z"/>
	<polygon class="st1" points="453.7,518 430.4,494.8 431.9,493.3 455.1,516.6 	"/>
	
		<rect x="417.9" y="515.8" transform="matrix(0.7071 -0.7071 0.7071 0.7071 -251.0994 451.0822)" class="st1" width="2" height="25.6"/>
	<path class="st1" d="M407.1,572.1c-3.1,0-5.9-0.7-8.2-2c-2.4-1.4-4-3.4-4.6-5.6c-1.2-4.8,1.2-9.5,6.7-12.5l1-0.5l0.4,1.1
		c0.6,1.5,3,6.5,9.2,5.2l0,0c2.4-0.5,5.5-1.6,8.8-2.7c5-1.7,10.1-3.5,14.2-3.7c4.2-0.2,7.9,0.9,10.3,3.1c1.8,1.7,2.8,4,2.8,6.6
		c0,4.4-2.5,7.5-7.7,9.5l-0.9,0.3l-0.4-0.9c-1.3-3.2-4.1-4.1-8.7-2.9l-15.8,4.1C411.7,571.7,409.3,572.1,407.1,572.1z M400.9,554.3
		c-3.9,2.5-5.7,6-4.8,9.7c0.4,1.7,1.8,3.3,3.7,4.4c2,1.2,6.5,2.8,13.7,0.8l15.8-4.1c6.3-1.6,9.2,0.6,10.6,3.2c5-2.2,5.6-5.2,5.6-7.3
		c0-2.1-0.7-3.8-2.2-5.1c-2-1.9-5.2-2.8-8.8-2.6c-3.8,0.2-8.8,2-13.6,3.6c-3.4,1.2-6.5,2.2-9.1,2.8l0,0
		C406.4,560.8,402.7,557.8,400.9,554.3z"/>
</g>
<g>
	<path class="st1" d="M716.3,263.1h-21.2c-1.2,0-2.2-1-2.2-2.2v-26.2c0-2.7,2.1-4.4,3.8-5.8c0.5-0.4,1-0.8,1.4-1.2l1.4,1.4
		c-0.4,0.4-1,0.8-1.5,1.3c-1.6,1.3-3.1,2.5-3.1,4.2v26.2c0,0.1,0.1,0.2,0.2,0.2h21.2c0.1,0,0.2-0.1,0.2-0.2v-26.2
		c0-1.7-1.5-3-3.1-4.2c-0.5-0.4-1-0.8-1.5-1.3l1.4-1.4c0.4,0.4,0.9,0.8,1.4,1.2c1.7,1.4,3.8,3.1,3.8,5.8v26.2
		C718.6,262.1,717.6,263.1,716.3,263.1z"/>
	<path class="st1" d="M718.6,229.4h-25.7V221c0-1.2,1-2.3,2.2-2.3h8.7v2h-8.7c-0.1,0-0.2,0.1-0.2,0.2v6.5h21.7V221
		c0-0.1-0.1-0.2-0.2-0.2h-7.5v-2h7.5c1.2,0,2.3,1,2.3,2.3V229.4z"/>
	<path class="st1" d="M699.9,219.7h-2v-12.5c0-1.9,1.6-3.5,3.5-3.5h8.7c1.9,0,3.5,1.6,3.5,3.5v2.5h-2v-2.5c0-0.8-0.7-1.5-1.5-1.5
		h-8.7c-0.8,0-1.5,0.7-1.5,1.5V219.7z"/>
	<path class="st1" d="M718.6,253.1h-19.5v-14.5h19.5V253.1z M701.1,251.1h15.5v-10.5h-15.5V251.1z"/>
	<polygon class="st1" points="737.3,215.7 710.1,215.7 710.1,213.7 735.3,213.7 735.3,210.7 710.1,210.7 710.1,208.7 737.3,208.7 	
		"/>
	<rect x="711.6" y="214.7" class="st1" width="2" height="5"/>
</g>
<g>
	<path class="st1" d="M157.5,377.1c-1.3,0-2.5-0.1-3.7-0.3c-1-0.1-1.9-0.2-2.8-0.2l0-2c0.9,0,2,0.1,3,0.2c3.2,0.3,6.5,0.7,8.6-1.5
		l17.9-18c0.5-0.5,0.9-1.3,0.9-2.1c0-0.8-0.3-1.5-0.9-2l-17.9-18c-1.1-1.1-3-1.1-4.1,0l-17.9,18c-2.1,2.1-1.8,5.4-1.5,8.6
		c0.1,1,0.2,2,0.2,3l-2,0c0-0.9-0.1-1.8-0.2-2.8c-0.4-3.5-0.8-7.4,2-10.2l17.9-18c1.9-1.9,5-1.9,6.9,0l17.9,18
		c0.9,0.9,1.4,2.2,1.4,3.5c0,1.3-0.5,2.5-1.4,3.5l-17.9,18C162.2,376.6,159.9,377.1,157.5,377.1z"/>
	<path class="st1" d="M122,396c-1,0-2.1-0.4-2.9-1.2c-1.5-1.5-1.6-3.9-0.2-5.5c7-8.2,9.5-18.3,7.8-20l1.4-1.4
		c3.1,3.1-0.8,14.6-7.7,22.8c-0.7,0.8-0.6,2,0.1,2.8c0.8,0.8,2,0.8,2.8,0.1c8.1-6.9,19.6-10.8,22.8-7.7l-1.4,1.4
		c-1.7-1.7-11.8,0.8-20,7.8C123.8,395.7,122.9,396,122,396z"/>
	<polygon class="st1" points="146.7,389.3 141.9,384.5 143.3,383 146.7,386.5 153.6,379.6 134.3,360.3 127.5,367.2 130.9,370.6 
		129.5,372 124.6,367.2 134.3,357.5 156.5,379.6 	"/>
	<polygon class="st1" points="141.9,384.5 136.4,378.9 137.8,377.5 143.3,383 	"/>
	<polygon class="st1" points="132.2,374.8 128.1,370.7 129.5,369.2 133.6,373.4 	"/>
	<path class="st1" d="M166.1,372.8l-18-18l12.5-12.5l18,18L166.1,372.8z M150.9,354.8l15.1,15.1l9.6-9.6l-15.1-15.1L150.9,354.8z"/>
	<path class="st1" d="M117.7,421.6c-5.3,0-8.8-3.4-8.8-8.5c0-4.3,2.3-6.6,4.3-8.6c1.6-1.6,3.1-3.1,3.6-5.6c0.2-1,1.8-1,2,0
		c0.5,2.5,2,4,3.6,5.6c2,2,4.3,4.3,4.3,8.6C126.6,418.2,123,421.6,117.7,421.6z M117.7,402.1c-0.8,1.5-2,2.7-3.1,3.8
		c-2,2-3.7,3.7-3.7,7.2c0,4.8,3.7,6.5,6.8,6.5s6.8-1.7,6.8-6.4c0-3.5-1.7-5.2-3.7-7.2C119.7,404.8,118.6,403.7,117.7,402.1z"/>
</g>
<g>
	<path class="st1" d="M147.9,246.6c-24.3,0-42.6-8.2-42.6-19.1s18.3-19.1,42.6-19.1c24.3,0,42.6,8.2,42.6,19.1
		S172.2,246.6,147.9,246.6z M147.9,210.4c-22.8,0-40.6,7.5-40.6,17.1c0,9.6,17.8,17.1,40.6,17.1s40.6-7.5,40.6-17.1
		C188.5,217.9,170.7,210.4,147.9,210.4z"/>
	<path class="st1" d="M147.9,264.7c-24.3,0-42.6-8.2-42.6-19.1v-18.1h2v18.1c0,9.6,17.8,17.1,40.6,17.1s40.6-7.5,40.6-17.1v-18.1h2
		v18.1C190.5,256.5,172.2,264.7,147.9,264.7z"/>
	<polygon class="st1" points="168,244.4 126.5,212.2 127.7,210.6 169.3,242.8 	"/>
</g>
<g>
	<path class="st1" d="M611,107.4l-1.4-1.4c6.2-6.2,2-20.4-9.3-31.8c-11.3-11.3-25.6-15.5-31.8-9.3l-1.4-1.4c7-7,22.5-2.8,34.6,9.3
		C613.8,84.8,617.9,100.4,611,107.4z"/>
	<path class="st1" d="M593.8,118.7c-7.6,0-17.3-4.6-25.4-12.7c-12.1-12.1-16.3-27.7-9.3-34.6l8-8l1.4,1.4l0,0
		c-6.2,6.2-2,20.4,9.4,31.8c11.3,11.3,25.6,15.5,31.7,9.4l0,0l1.4,1.4h0l-8,8C600.7,117.6,597.5,118.7,593.8,118.7z M564,69.3
		l-3.5,3.5c-6.2,6.2-2,20.4,9.3,31.8c11.3,11.3,25.6,15.5,31.8,9.3l3.5-3.5c-8,1.7-19.3-3-28.7-12.4C567,88.6,562.3,77.2,564,69.3z"
		/>
	<path class="st1" d="M555.3,103.7c-16.9,0-29.1-5.2-29.1-12.3c0-7.1,12.3-12.3,29.1-12.3l1.6,0l0,2l-1.6,0
		c-17,0-27.1,5.2-27.1,10.2c0,5,10.2,10.2,27.1,10.2c3.8,0,7.4-0.3,10.8-0.8l0.3,2C562.9,103.5,559.1,103.7,555.3,103.7z"/>
	<path class="st1" d="M555.3,116.8c-16.9,0-29.1-5.2-29.1-12.3V91.5h2v13.1c0,5,10.2,10.2,27.1,10.2c8.5,0,16.7-1.4,22.2-3.8
		l0.8,1.9C572.5,115.4,564.1,116.8,555.3,116.8z"/>
	<polygon class="st1" points="608.9,107.2 567.6,64 569.1,62.6 610.4,105.8 	"/>
</g>
<path class="st1" d="M106.9,214.6c-3.7,0-6.7-3-6.7-6.7c0-3.7,3-6.7,6.7-6.7s6.7,3,6.7,6.7C113.6,211.6,110.6,214.6,106.9,214.6z
	 M106.9,202.5c-3,0-5.5,2.4-5.5,5.5c0,3,2.4,5.5,5.5,5.5s5.5-2.5,5.5-5.5C112.4,204.9,109.9,202.5,106.9,202.5z"/>
<path class="st1" d="M111.1,190.3c-1.8,0-3.2-1.5-3.2-3.3c0-1.8,1.5-3.3,3.2-3.3s3.2,1.5,3.2,3.3
	C114.4,188.9,112.9,190.3,111.1,190.3z M111.1,185c-1.1,0-2,0.9-2,2c0,1.1,0.9,2,2,2s2-0.9,2-2C113.2,185.9,112.2,185,111.1,185z"/>
<path class="st1" d="M120.7,197.8c-0.9,0-1.7-0.8-1.7-1.7c0-0.9,0.8-1.7,1.7-1.7c0.9,0,1.7,0.8,1.7,1.7
	C122.4,197.1,121.7,197.8,120.7,197.8z M120.7,195.7c-0.3,0-0.5,0.2-0.5,0.5s0.2,0.5,0.5,0.5c0.3,0,0.5-0.2,0.5-0.5
	S121,195.7,120.7,195.7z"/>
<path class="st1" d="M105.6,199.5c-1.9,0-3.5-1.6-3.5-3.5s1.6-3.5,3.5-3.5c1.9,0,3.5,1.6,3.5,3.5S107.5,199.5,105.6,199.5z
	 M105.6,193.8c-1.2,0-2.3,1-2.3,2.3s1,2.3,2.3,2.3c1.2,0,2.3-1,2.3-2.3S106.9,193.8,105.6,193.8z"/>
<path class="st1" d="M409.1,420.7c-1.2,0-2.5-0.2-3.8-0.5l0,0c-0.5-0.2-4.7-1.6-5.8-2.6l-0.2-0.2c-1.1-0.9-1.7-1.7-0.9-4.4l0.4-1.5
	c5.8-21.6,12.9-47.8,13.8-50.2c0.7-1.7,2-2.8,3.1-3.7c0.8-0.7,1.5-1.3,1.6-1.8c0-0.3-0.1-1-0.2-1.6c-0.2-1.2-0.4-2.7-0.1-3.9
	c0.3-1.2,1.3-3.3,2.3-5.3c0.8-1.7,1.6-3.5,1.8-4.2c0.3-1.4,2-8.5,5.2-10.2c0.9-0.5,1.9-0.5,2.9-0.1c4.8,2.1,2.5,9.2,1.6,12.3
	l-0.2,0.7c-0.4,1.2-0.5,2.9-0.6,4.8c-0.1,1.7-0.2,3.5-0.5,4.9c-0.5,2.5-2,4.4-3.1,5.4c0,0.2,0.4,1,0.6,1.6c0.6,1.4,1.4,3.3,1.1,5.2
	c-0.1,0.8-0.5,1.8-0.8,2.9c-0.1,0.4-0.2,0.8-0.3,1.1c-0.2,0.6-3.1,11.4-6.1,22.8c-3.3,12.5-6.8,25.4-7.1,26.4
	C413.2,420.1,411.3,420.7,409.1,420.7z M405.6,419c3.3,0.9,6.5,0.5,6.8-0.8c0.3-1,3.7-13.9,7.1-26.4c3.1-11.4,6-22.2,6.1-22.8
	c0.1-0.3,0.2-0.7,0.3-1.1c0.3-1,0.6-2,0.7-2.7c0.2-1.5-0.5-3.2-1-4.5c-0.6-1.4-1-2.4-0.3-3c0.9-0.8,2.2-2.5,2.7-4.7
	c0.3-1.4,0.4-3.1,0.5-4.8c0.1-1.9,0.2-3.7,0.6-5l0.2-0.7c0.9-2.7,2.9-9.2-0.9-10.8c-0.7-0.3-1.3-0.3-1.9,0c-2.8,1.5-4.4,8.6-4.6,9.4
	c-0.2,0.8-1,2.5-1.9,4.5c-0.9,1.9-1.9,4-2.2,5.1c-0.2,0.9,0,2.3,0.2,3.3c0.1,0.8,0.2,1.5,0.2,2c-0.1,1-1,1.7-2,2.6
	c-1,0.8-2.2,1.8-2.8,3.2c-0.8,1.8-5.7,19.6-13.8,50.1l-0.4,1.5c-0.6,2.2-0.2,2.5,0.6,3.2l0.3,0.2C401.1,417.4,404.4,418.6,405.6,419
	z"/>
<path class="st1" d="M429.9,426.3c-1.2,0-2.5-0.2-3.8-0.5l0,0c-0.5-0.2-4.7-1.6-5.8-2.6l-0.2-0.2c-1.1-0.9-1.7-1.7-0.9-4.4l0.4-1.5
	c5.8-21.6,12.9-47.8,13.8-50.2c0.7-1.7,2-2.8,3.1-3.7c0.8-0.6,1.5-1.2,1.6-1.8c0-0.3-0.1-1-0.2-1.6c-0.2-1.2-0.4-2.7-0.1-3.9
	c0.3-1.2,1.3-3.3,2.3-5.3c0.8-1.7,1.6-3.5,1.8-4.2c0.3-1.4,2-8.5,5.2-10.2c0.9-0.5,1.9-0.5,2.9-0.1c4.8,2.1,2.5,9.3,1.5,12.3
	l-0.2,0.6c-0.4,1.2-0.5,2.9-0.6,4.8c-0.1,1.7-0.2,3.5-0.5,4.9c-0.5,2.5-2,4.4-3.1,5.4c0,0.2,0.4,1,0.6,1.6c0.6,1.4,1.4,3.3,1.1,5.2
	c-0.1,0.8-0.5,1.9-0.8,2.9c-0.1,0.4-0.2,0.7-0.3,1.1c-0.2,0.6-3.6,13.2-6.8,25.3c-3.2,11.8-6.2,23-6.4,23.9
	C434.1,425.7,432.2,426.3,429.9,426.3z M426.5,424.6c3.3,0.9,6.5,0.5,6.8-0.8c0.3-0.9,3.4-12.6,6.4-23.8c3.3-12.2,6.6-24.7,6.8-25.3
	c0.1-0.3,0.2-0.7,0.3-1.1c0.3-1,0.6-2.1,0.7-2.7c0.2-1.5-0.5-3.2-1-4.5c-0.6-1.4-1-2.4-0.3-3c1-0.8,2.2-2.5,2.7-4.7
	c0.3-1.4,0.4-3.1,0.5-4.8c0.1-1.9,0.2-3.7,0.6-5l0.2-0.6c0.9-2.8,3-9.2-0.9-10.8c-0.7-0.3-1.3-0.3-1.9,0c-2.8,1.5-4.4,8.6-4.6,9.4
	c-0.2,0.8-1,2.5-1.9,4.4c-0.9,1.9-1.9,4-2.2,5.1c-0.2,0.9,0,2.3,0.2,3.4c0.1,0.8,0.2,1.4,0.2,1.9c-0.1,1-1,1.7-2,2.6
	c-1,0.8-2.2,1.8-2.8,3.2c-0.8,1.8-5.7,19.6-13.8,50.1l-0.4,1.5c-0.6,2.2-0.2,2.5,0.6,3.2l0.3,0.2C421.9,423,425.2,424.2,426.5,424.6
	z"/>
<path class="st1" d="M407.8,417.6l-0.7-0.2c-2.6-0.7-4.8-1.3-5.7-3c-0.5-0.9-0.6-2-0.2-3.4l1.4-4.6l1.2,0.3l-1.4,4.6
	c-0.3,1-0.3,1.8,0.1,2.4c0.7,1.2,2.7,1.8,5,2.4l0.7,0.2L407.8,417.6z"/>
<path class="st1" d="M428.4,423.1l-0.8-0.2c-2.6-0.7-4.8-1.3-5.7-3c-0.5-0.9-0.6-2-0.2-3.4l1.4-4.6l1.2,0.3l-1.4,4.5
	c-0.3,1-0.3,1.8,0.1,2.4c0.7,1.2,2.7,1.8,5,2.4l1.2,0.3v0.5h-0.6L428.4,423.1z"/>
<g>
	<g>
		
			<ellipse transform="matrix(0.7071 -0.7071 0.7071 0.7071 48.9118 349.8661)" class="st2" cx="446.8" cy="115.9" rx="9.6" ry="9.6"/>
		<path class="st1" d="M446.8,126.1c-2.6,0-5.2-1-7.2-3c-4-4-4-10.4,0-14.4c4-4,10.4-4,14.4,0c4,4,4,10.4,0,14.4
			C452,125.1,449.4,126.1,446.8,126.1z M446.8,106.9c-2.4,0-4.6,0.9-6.3,2.6c-1.7,1.7-2.6,4-2.6,6.3c0,2.4,0.9,4.7,2.6,6.3
			c1.7,1.7,4,2.6,6.3,2.6c2.4,0,4.7-0.9,6.3-2.6c1.7-1.7,2.6-4,2.6-6.3c0-2.4-0.9-4.6-2.6-6.3C451.4,107.9,449.2,106.9,446.8,106.9z
			"/>
	</g>
	<path class="st1" d="M447.2,108.4c1.1,0.1,1.3,1.7,0.2,2c-1.3,0.4-2.8,1.1-3.9,2.3c-1.1,1.1-1.8,2.6-2.3,3.9
		c-0.4,1.1-1.9,0.9-2-0.2c-0.1-1.9,0.7-4,2.3-5.7C443.2,109,445.3,108.3,447.2,108.4z"/>
</g>
<g>
	<g>
		
			<ellipse transform="matrix(0.7071 -0.7071 0.7071 0.7071 34.441 314.9313)" class="st2" cx="397.4" cy="115.9" rx="9.6" ry="9.6"/>
		<path class="st1" d="M397.4,126.1c-2.6,0-5.2-1-7.2-3c-4-4-4-10.4,0-14.4c4-4,10.4-4,14.4,0c4,4,4,10.4,0,14.4
			C402.6,125.1,400,126.1,397.4,126.1z M397.4,106.9c-2.4,0-4.6,0.9-6.3,2.6c-1.7,1.7-2.6,4-2.6,6.3c0,2.4,0.9,4.7,2.6,6.3
			c1.7,1.7,4,2.6,6.3,2.6c2.4,0,4.7-0.9,6.3-2.6c1.7-1.7,2.6-4,2.6-6.3c0-2.4-0.9-4.6-2.6-6.3C402,107.9,399.8,106.9,397.4,106.9z"
			/>
	</g>
	<path class="st1" d="M397.8,108.4c1.1,0.1,1.3,1.7,0.2,2c-1.3,0.4-2.8,1.1-3.9,2.3c-1.1,1.1-1.8,2.6-2.3,3.9
		c-0.4,1.1-1.9,0.9-2-0.2c-0.1-1.9,0.7-4,2.3-5.7C393.8,109,395.9,108.3,397.8,108.4z"/>
</g>
<g>
	<g>
		
			<ellipse transform="matrix(0.7071 -0.7071 0.7071 0.7071 41.7278 332.523)" class="st2" cx="422.2" cy="115.9" rx="9.6" ry="9.6"/>
		<path class="st1" d="M422.2,126.1c-2.7,0-5.3-1.1-7.2-3c-4-4-4-10.4,0-14.4c1.9-1.9,4.5-3,7.2-3c0,0,0,0,0,0c2.7,0,5.3,1.1,7.2,3
			c4,4,4,10.4,0,14.4C427.5,125,425,126.1,422.2,126.1C422.2,126.1,422.2,126.1,422.2,126.1z M422.2,106.9c-2.4,0-4.7,0.9-6.3,2.6
			c-1.7,1.7-2.6,4-2.6,6.3c0,2.4,0.9,4.7,2.6,6.3c1.7,1.7,4,2.6,6.3,2.6l0,0c2.4,0,4.7-0.9,6.3-2.6c1.7-1.7,2.6-4,2.6-6.3
			c0-2.4-0.9-4.6-2.6-6.3l0,0C426.9,107.9,424.6,106.9,422.2,106.9L422.2,106.9z"/>
	</g>
	<path class="st1" d="M422.7,108.4c1.1,0.1,1.3,1.7,0.2,2c-1.3,0.4-2.8,1.1-3.9,2.3c-1.1,1.1-1.8,2.6-2.3,3.9
		c-0.4,1.1-1.9,0.9-2-0.2c-0.1-1.9,0.7-4,2.3-5.7C418.7,109,420.8,108.3,422.7,108.4z"/>
</g>
<g>
	<g>
		<ellipse transform="matrix(0.7071 -0.7071 0.7071 0.7071 52.5976 318.9135)" class="st2" cx="411.3" cy="96" rx="9.6" ry="9.6"/>
		<path class="st1" d="M411.3,106.1c-2.6,0-5.2-1-7.2-3c-4-4-4-10.4,0-14.4c4-4,10.4-4,14.4,0c4,4,4,10.4,0,14.4
			C416.5,105.1,413.9,106.1,411.3,106.1z M411.3,87c-2.4,0-4.7,0.9-6.3,2.6c-1.7,1.7-2.6,4-2.6,6.3c0,2.4,0.9,4.7,2.6,6.3
			c1.7,1.7,4,2.6,6.3,2.6c2.4,0,4.6-0.9,6.3-2.6c1.7-1.7,2.6-4,2.6-6.3c0-2.4-0.9-4.6-2.6-6.3C415.9,87.9,413.6,87,411.3,87z"/>
	</g>
	<path class="st1" d="M411.7,88.5c1.1,0.1,1.3,1.7,0.2,2c-1.3,0.4-2.8,1.1-3.9,2.3c-1.1,1.1-1.8,2.6-2.3,3.9c-0.4,1.1-1.9,0.9-2-0.2
		c-0.1-1.9,0.7-4,2.3-5.7C407.7,89.1,409.8,88.3,411.7,88.5z"/>
</g>
<g>
	<g>
		<ellipse transform="matrix(0.7071 -0.7071 0.7071 0.7071 66.2114 351.8609)" class="st2" cx="457.8" cy="96" rx="9.6" ry="9.6"/>
		<path class="st1" d="M457.8,106.2c-2.7,0-5.3-1.1-7.2-3c-4-4-4-10.4,0-14.4c1.9-1.9,4.5-3,7.2-3c0,0,0,0,0,0c2.7,0,5.3,1.1,7.2,3
			l0,0c4,4,4,10.4,0,14.4C463.1,105.1,460.5,106.2,457.8,106.2C457.8,106.2,457.8,106.2,457.8,106.2z M457.8,87
			c-2.4,0-4.7,0.9-6.3,2.6c-1.7,1.7-2.6,4-2.6,6.3c0,2.4,0.9,4.6,2.6,6.3c1.7,1.7,4,2.6,6.3,2.6l0,0c2.4,0,4.7-0.9,6.3-2.6
			c1.7-1.7,2.6-4,2.6-6.3c0-2.4-0.9-4.7-2.6-6.3l0,0C462.5,88,460.2,87,457.8,87L457.8,87z"/>
	</g>
	<path class="st1" d="M458.3,88.5c1.1,0.1,1.3,1.7,0.2,2c-1.3,0.4-2.8,1.1-3.9,2.3c-1.1,1.1-1.8,2.6-2.3,3.9c-0.4,1.1-1.9,0.9-2-0.2
		c-0.1-1.9,0.7-4,2.3-5.7C454.3,89.2,456.4,88.4,458.3,88.5z"/>
</g>
<g>
	<g>
		
			<ellipse transform="matrix(0.7071 -0.7071 0.7071 0.7071 77.2241 337.5579)" class="st2" cx="446.1" cy="75.6" rx="9.6" ry="9.6"/>
		<path class="st1" d="M446.1,85.7c-2.6,0-5.2-1-7.2-3c-4-4-4-10.4,0-14.4c4-4,10.4-4,14.4,0c4,4,4,10.4,0,14.4
			C451.3,84.7,448.7,85.7,446.1,85.7z M446.1,66.6c-2.4,0-4.7,0.9-6.3,2.6c-1.7,1.7-2.6,4-2.6,6.3c0,2.4,0.9,4.6,2.6,6.3
			c1.7,1.7,4,2.6,6.3,2.6c2.4,0,4.6-0.9,6.3-2.6c1.7-1.7,2.6-4,2.6-6.3c0-2.4-0.9-4.7-2.6-6.3C450.7,67.5,448.5,66.6,446.1,66.6z"/>
	</g>
	<path class="st1" d="M446.5,68.1c1.1,0.1,1.3,1.7,0.2,2c-1.3,0.4-2.8,1.1-3.9,2.3c-1.1,1.1-1.8,2.6-2.3,3.9c-0.4,1.1-1.9,0.9-2-0.2
		c-0.1-1.9,0.7-4,2.3-5.7C442.5,68.7,444.6,67.9,446.5,68.1z"/>
</g>
<g>
	<g>
		<ellipse transform="matrix(0.7071 -0.7071 0.7071 0.7071 59.578 335.7654)" class="st2" cx="435.1" cy="96" rx="9.6" ry="9.6"/>
		<path class="st1" d="M435.1,106.1c-2.6,0-5.2-1-7.2-3c-4-4-4-10.4,0-14.4c4-4,10.4-4,14.4,0l0,0c4,4,4,10.4,0,14.4
			C440.3,105.1,437.7,106.1,435.1,106.1z M435.1,87c-2.3,0-4.6,0.9-6.3,2.6c-1.7,1.7-2.6,4-2.6,6.3c0,2.4,0.9,4.7,2.6,6.3
			c1.7,1.7,4,2.6,6.3,2.6s4.7-0.9,6.3-2.6c3.5-3.5,3.5-9.2,0-12.7l0,0C439.7,87.9,437.4,87,435.1,87z"/>
	</g>
	<path class="st1" d="M435.6,88.5c1.1,0.1,1.3,1.7,0.2,2c-1.3,0.4-2.8,1.1-3.9,2.3c-1.1,1.1-1.8,2.6-2.3,3.9c-0.4,1.1-1.9,0.9-2-0.2
		c-0.1-1.9,0.7-4,2.3-5.7C431.5,89.1,433.7,88.3,435.6,88.5z"/>
</g>
<g>
	<g>
		
			<ellipse transform="matrix(0.7071 -0.7071 0.7071 0.7071 69.8297 319.7066)" class="st2" cx="420.8" cy="75.6" rx="9.6" ry="9.6"/>
		<path class="st1" d="M420.8,85.7C420.8,85.7,420.8,85.7,420.8,85.7c-2.7,0-5.3-1.1-7.2-3c-4-4-4-10.4,0-14.4c1.9-1.9,4.5-3,7.2-3
			c0,0,0,0,0,0c2.7,0,5.3,1.1,7.2,3c4,4,4,10.4,0,14.4C426.1,84.7,423.5,85.7,420.8,85.7z M420.8,66.6L420.8,66.6
			c-2.4,0-4.7,0.9-6.3,2.6c-1.7,1.7-2.6,4-2.6,6.3c0,2.4,0.9,4.6,2.6,6.3c1.7,1.7,3.9,2.6,6.3,2.6l0,0c2.4,0,4.7-0.9,6.3-2.6
			c1.7-1.7,2.6-4,2.6-6.3c0-2.4-0.9-4.7-2.6-6.3C425.5,67.5,423.2,66.6,420.8,66.6z"/>
	</g>
	<path class="st1" d="M421.3,68.1c1.1,0.1,1.3,1.7,0.2,2c-1.3,0.4-2.8,1.1-3.9,2.3c-1.1,1.1-1.8,2.6-2.3,3.9c-0.4,1.1-1.9,0.9-2-0.2
		c-0.1-1.9,0.7-4,2.3-5.7C417.3,68.7,419.4,67.9,421.3,68.1z"/>
</g>
<g>
	<path class="st1" d="M442.2,257c-1.7,0-3.4-0.2-5.2-0.5c-7.1-1.4-14.4-5.5-20.4-11.5c-12.5-12.5-15.8-29.6-7.3-38.1
		c8.5-8.5,25.6-5.2,38.1,7.3c6,6,10.1,13.3,11.5,20.4c1.5,7.3,0,13.6-4.2,17.7C451.5,255.4,447.2,257,442.2,257z M421.8,204.1
		c-4.4,0-8.3,1.3-11.1,4.2c-7.7,7.7-4.4,23.5,7.3,35.3c5.7,5.7,12.6,9.6,19.3,11c6.6,1.3,12.2,0,15.9-3.7c3.7-3.7,5-9.3,3.7-15.9
		c-1.3-6.7-5.2-13.6-11-19.3C438.5,208.1,429.4,204.1,421.8,204.1z"/>
	<path class="st1" d="M443.5,218c-4.2-4.2-9-7.2-13.3-8.7c-2-0.7-4,0.9-3.9,3l0,0c0.1,1,0.7,1.9,1.6,2.4c3.6,1.9,7.6,4.5,11,7.9
		c3.4,3.4,6,7.4,7.9,11c0.5,0.9,1.4,1.5,2.4,1.6l0,0c2.1,0.2,3.7-1.9,3-3.9C450.7,227,447.7,222.3,443.5,218z"/>
</g>
<text transform="matrix(1 0 0 1 100.8452 31.3428)" class="st3 st4 st5">Injection</text>
<text transform="matrix(1 0 0 1 228.3247 31.3467)" class="st3 st4 st5">Pommade</text>
<text transform="matrix(1 0 0 1 380.1851 31.3467)" class="st3 st4 st5">Granulés</text>
<text transform="matrix(1 0 0 1 515.4492 31.3467)" class="st3 st4 st5">Comprimés</text>
<text transform="matrix(1 0 0 1 672.8379 31.3467)" class="st3 st4 st5">Pastilles</text>
<text transform="matrix(1 0 0 1 76.8149 173.1475)" class="st3 st4 st5">Effervescent</text>
<text transform="matrix(1 0 0 1 255.98 173.1475)" class="st3 st4 st5">Sirop</text>
<text transform="matrix(1 0 0 1 383.2017 173.1504)" class="st3 st4 st5">Capsule</text>
<text transform="matrix(1 0 0 1 538.5801 173.1504)" class="st3 st4 st5">Gélule</text>
<text transform="matrix(1 0 0 1 646.6934 173.1475)" class="st3 st4 st5">Spray buccal</text>
<text transform="matrix(1 0 0 1 100.8452 313.9434)" class="st3 st4 st5">Gouttes</text>
<text transform="matrix(1 0 0 1 76.8149 466.8066)" class="st3 st4 st5">Suppositoire</text>
<text transform="matrix(1 0 0 1 252.4585 466.8066)" class="st3 st4 st5">Ovule</text>
<text transform="matrix(1 0 0 1 390.7485 466.8066)" class="st3 st4 st5">Crème</text>
<text transform="matrix(1 0 0 1 487.4961 466.8066)" class="st3 st4 st5">Solution buvable</text>
<text transform="matrix(1 0 0 1 246.2476 313.9463)" class="st3 st4 st5">Sachet</text>
<text transform="matrix(1 0 0 1 381.5142 313.9463)" class="st3 st4 st5">Ampoule</text>
<text transform="matrix(1 0 0 1 536.8936 313.9463)" class="st3 st4 st5">Gélule</text>
<text transform="matrix(1 0 0 1 653.0508 313.9463)" class="st3 st4 st5">Spray nasal</text>
<g>
	<rect x="543.8" y="498.1" class="st1" width="10.2" height="2"/>
	<rect x="543.8" y="490" class="st1" width="14.2" height="2"/>
	<rect x="560.1" y="498.1" class="st1" width="14.2" height="2"/>
	<rect x="564.2" y="490" class="st1" width="10.2" height="2"/>
	<path class="st1" d="M570.3,573.4h-32.5c-3.9,0-7.1-3.2-7.1-7.1v-40.1c0-4.5,2-8.8,5.5-11.7l7.1-5.9c1.9-1.4,3.7-3.6,3.7-5.3v-18.3
		c0-1.7,1.4-3,3-3h18.3c1.7,0,3,1.4,3,3v18.3c0,1.8,1.8,3.9,3.7,5.3l7.1,5.9c3.5,2.9,5.5,7.2,5.5,11.7v11.6h-2v-11.6
		c0-3.9-1.7-7.6-4.8-10.2l-7.1-5.9c-2.1-1.6-4.4-4.2-4.4-6.9v-18.3c0-0.6-0.5-1-1-1h-18.3c-0.6,0-1,0.5-1,1v18.3
		c0,2.6-2.3,5.3-4.5,6.9l-7,5.9c-3,2.5-4.8,6.2-4.8,10.2v40.1c0,2.8,2.3,5.1,5.1,5.1h32.5V573.4z"/>
	<path class="st1" d="M599.1,577.4H580l-6.7-6.7v-18.4l-4.1-6.1v-3.3h40.7v3.3l-4.1,6.1v18.4L599.1,577.4z M580.8,575.4h17.5
		l5.5-5.5v-18.2l4.1-6.1v-0.7h-36.6v0.7l4.1,6.1v18.2L580.8,575.4z"/>
	<path class="st1" d="M561.1,561.2h-30.5v-32.5h30.5V561.2z M532.6,559.1h26.5v-28.5h-26.5V559.1z"/>
</g>
<g>
	<path class="st1" d="M293.3,125.7h-19c-5.5,0-11.3-2.7-11.5-7.3l-4.1-64.9l0-7.8H309v7.7l-4.1,64.9
		C304.6,123,298.8,125.7,293.3,125.7z M260.7,47.7v5.7l4.1,64.8c0.2,3.2,5.1,5.4,9.5,5.4h19c4.4,0,9.3-2.2,9.5-5.4l4.1-64.9l0-5.7
		H260.7z"/>
	<path class="st1" d="M283.9,144.6c-6.9,0-12.6-5.6-12.6-12.6v-8.4h25.2v8.4C296.5,139,290.8,144.6,283.9,144.6z M273.3,125.7v6.4
		c0,5.8,4.7,10.6,10.6,10.6c5.8,0,10.6-4.7,10.6-10.6v-6.4H273.3z"/>
	<rect x="259.6" y="58.4" class="st1" width="48.4" height="2"/>
	<rect x="263.9" y="104.7" class="st1" width="40" height="2"/>
</g>
<path class="st1" d="M283.1,576.1l-0.2,0c-6.1-1.1-9.4-2.4-9.9-3.7c-0.6-1.7-5.4-51.5-5.4-61.6c0-10.8,9.6-27.3,16-27.5
	c6.4-0.1,16.1,17.3,16.5,27.1c0.4,9.5-5.2,59.2-5.4,61.3l0,0.3l-0.2,0.2C294.4,572.2,291.4,576.1,283.1,576.1z M283.7,485.2
	C283.7,485.2,283.7,485.2,283.7,485.2c-4.9,0.2-14.1,15.4-14.1,25.5c0,9.4,4.7,58.7,5.3,61c0.5,0.5,4.7,1.6,8.2,2.3
	c6.2,0,8.9-2.3,9.6-3c0.5-4.4,5.7-51.8,5.4-60.7C297.8,501.3,288.5,485.2,283.7,485.2z"/>
<path class="st1" d="M159.1,544.2c-11.8,0-50.7-3-52.4-3.1l-0.5-0.2c-0.2-0.1-3.7-2.4-3.8-9l0-0.2c0.9-4.8,2-7.5,3.2-7.9
	c1.5-0.5,45.5-5.1,54.5-5.3c9.6-0.2,24.4,7.1,24.7,12.1c0.1,1.1-0.5,2.2-1.6,3.5c-4.1,4.6-15.3,9.6-22.2,10
	C160.5,544.2,159.8,544.2,159.1,544.2z M107.1,539.1c3.9,0.3,45.9,3.5,53.8,3.1c6.4-0.4,17.1-5.2,20.8-9.3c1-1.1,1.1-1.7,1.1-2
	c-0.2-3.3-12.9-10.2-22.3-10.2c-0.1,0-0.3,0-0.4,0c-8.3,0.2-51.9,4.7-54,5.2c-0.3,0.4-1.2,3.3-1.8,6.2
	C104.5,536.6,106.5,538.6,107.1,539.1z"/>
</svg>
