<?xml version="1.0" encoding="utf-8"?>
<!-- Generator: Adobe Illustrator 20.1.0, SVG Export Plug-In . SVG Version: 6.00 Build 0)  -->
<svg version="1.1" id="Calque_1" xmlns="http://www.w3.org/2000/svg" xmlns:xlink="http://www.w3.org/1999/xlink" x="0px" y="0px"
	 viewBox="0 0 283.5 283.5" style="enable-background:new 0 0 283.5 283.5;" xml:space="preserve">
<style type="text/css">
	.st0{fill:#FFFFFF;}
</style>
<g>
	<path class="st0" d="M223.4,245.9c-13.2,0-24.8-8.9-28.2-21.5l-12.3-44.9c-2.1-7.5-1.1-15.4,2.8-22.2c3.9-6.8,10.2-11.7,17.7-13.7
		c2.5-0.7,5.1-1,7.7-1c13.2,0,24.8,8.9,28.2,21.5l12.3,44.9c2.1,7.5,1.1,15.4-2.8,22.2c-3.9,6.8-10.1,11.7-17.7,13.7
		C228.5,245.6,226,245.9,223.4,245.9z M211,149.9c-1.9,0-3.9,0.3-5.7,0.8c-5.6,1.5-10.3,5.2-13.2,10.3c-2.9,5.1-3.6,11-2.1,16.6
		l12.3,44.9c2.6,9.5,11.3,16.1,21.1,16.1c1.9,0,3.9-0.3,5.7-0.8c5.6-1.5,10.3-5.2,13.2-10.3c2.9-5.1,3.7-11,2.1-16.6L232.1,166
		C229.6,156.5,220.9,149.9,211,149.9z"/>
	<path class="st0" d="M144.4,140.4l-7.1-2.1l9.8-33.6c4.4-15.2,19.1-25.6,35-24.8c2.6,0.1,5.2,0.6,7.8,1.3
		c8.8,2.6,16.1,8.4,20.6,16.5c4.9,8.9,2,24-2.3,35.1l-6.9-2.7c4.5-11.7,5.7-23.5,2.7-28.9c-3.5-6.4-9.2-11-16.2-13
		c-2-0.6-4.1-0.9-6.1-1c-12.4-0.7-24,7.5-27.5,19.5L144.4,140.4z"/>
	<path class="st0" d="M150.6,234c-7.6,0-15-2.7-20.8-7.5l-42.5-35.3c-6.7-5.6-10.8-13.4-11.6-22.1c-0.8-8.7,1.8-17.2,7.4-23.9
		c6.2-7.5,15.4-11.8,25.1-11.8c7.6,0,15,2.7,20.8,7.5l42.5,35.3c6.7,5.6,10.8,13.4,11.6,22.1c0.8,8.7-1.8,17.2-7.4,23.9
		C169.6,229.7,160.4,234,150.6,234z M108.2,140.9c-7.6,0-14.7,3.3-19.5,9.1c-4.3,5.2-6.3,11.7-5.7,18.5c0.6,6.7,3.8,12.8,9,17.1
		l42.5,35.3c4.5,3.7,10.2,5.8,16.1,5.8h0c7.6,0,14.7-3.3,19.5-9.1c4.3-5.2,6.3-11.7,5.7-18.5c-0.6-6.7-3.8-12.8-9-17.1l-42.5-35.3
		C119.8,142.9,114,140.9,108.2,140.9z"/>
	
		<rect x="100.3" y="179.7" transform="matrix(0.6402 -0.7682 0.7682 0.6402 -94.8295 164.3428)" class="st0" width="55.6" height="7.4"/>
	
		<rect x="192.9" y="189.7" transform="matrix(0.9744 -0.225 0.225 0.9744 -37.9402 53.9162)" class="st0" width="49.2" height="7.4"/>
	<path class="st0" d="M95.1,182.5c-4.1-4.1-6.3-9.4-6.3-15.2c0-5.7,2.2-11.1,6.3-15.2l5.2,5.2c-2.7,2.7-4.1,6.2-4.1,10
		c0,3.8,1.5,7.3,4.1,10L95.1,182.5z"/>
	<path class="st0" d="M193.6,176.8c0-5.9,2.3-11.5,6.5-15.7c4.2-4.2,9.7-6.5,15.7-6.5v7.4c-3.9,0-7.6,1.5-10.4,4.3
		c-2.8,2.8-4.3,6.5-4.3,10.4H193.6z"/>
	
		<rect x="162.2" y="113.6" transform="matrix(0.3417 -0.9398 0.9398 0.3417 -17.8863 244.9237)" class="st0" width="7.4" height="43.2"/>
	<path class="st0" d="M168.7,110.6l-7.2-1.6c1-4.8,3.9-8.9,8-11.5c4.1-2.6,9-3.5,13.8-2.5l-1.6,7.2c-2.8-0.6-5.8-0.1-8.2,1.5
		C171,105.3,169.3,107.8,168.7,110.6z"/>
</g>
</svg>
