<?xml version="1.0" encoding="utf-8"?>
<!-- Generator: Adobe Illustrator 20.1.0, SVG Export Plug-In . SVG Version: 6.00 Build 0)  -->
<svg version="1.1" id="Calque_1" xmlns="http://www.w3.org/2000/svg" xmlns:xlink="http://www.w3.org/1999/xlink" x="0px" y="0px"
	 viewBox="0 0 1530.7 1530.7" style="enable-background:new 0 0 1530.7 1530.7;" xml:space="preserve">
<style type="text/css">
	.st0{fill:#009872;}
	.st1{fill:#FCC000;}
	.st2{fill:#61AED2;}
	.st3{fill:#EE7125;}
	.st4{fill:#EB575A;}
	.st5{fill:#FFFFFF;}
</style>
<g>
	<path class="st0" d="M956.4,452.1H459.9c-67,0-121.3,54.3-121.3,121.3V1070c0,67,54.3,121.3,121.3,121.3h496.5
		c67,0,121.3-54.3,121.3-121.3V573.5C1077.7,506.4,1023.4,452.1,956.4,452.1z"/>
	<g>
		<g>
			<path class="st1" d="M495.4,820.8l-5.4,7.9c-6.6,9.7-10.1,21.2-10.1,33.3c0,32.2,25.4,58.4,56.5,58.4s56.5-26.2,56.5-58.4
				c0-12.1-3.5-23.6-10.1-33.3l-5.4-7.9h131.5V711.2c-9.6,4.8-20.2,7.2-31.1,7.2c-37.8,0-68.5-29.9-68.5-66.7
				c0-36.8,30.8-66.7,68.5-66.7c10.9,0,21.5,2.5,31.1,7.2v-96.4c-179.4,1.8-324.7,146-328.3,324.9H495.4z"/>
			<path class="st2" d="M719,610.7l-7.9-5.3c-9.8-6.6-21.3-10.1-33.3-10.1c-32.2,0-58.4,25.4-58.4,56.5c0,31.2,26.2,56.5,58.4,56.5
				c12,0,23.5-3.5,33.3-10.1l7.9-5.3v128h116.9c-3.8-9.1-5.6-18.2-5.6-27.7c0-37.8,29.9-68.5,66.7-68.5s66.7,30.7,66.7,68.5
				c0,9.5-1.9,18.7-5.6,27.7h86C1040.4,643,896.9,499.5,719,495.9V610.7z"/>
			<path class="st3" d="M941.4,831l4-7.5c5.4-10,8-20,8-30.4c0-32.2-25.4-58.4-56.5-58.4c-31.2,0-56.5,26.2-56.5,58.4
				c0,10.4,2.6,20.4,8,30.4l4,7.5H719v120.2c9.1-3.8,18.2-5.6,27.7-5.6c37.8,0,68.5,29.9,68.5,66.7c0,36.8-30.8,66.7-68.5,66.7
				c-9.5,0-18.7-1.9-27.7-5.6v86c179-3.6,323.1-148.9,324.9-328.3H941.4z"/>
			<path class="st4" d="M708.9,1056.7l7.5,4c10,5.4,20,8,30.4,8c32.2,0,58.4-25.4,58.4-56.5c0-31.2-26.2-56.5-58.4-56.5
				c-10.4,0-20.4,2.6-30.4,8l-7.5,4V831h-113c4.7,9.5,7.2,20.1,7.2,31.1c0,37.8-29.9,68.6-66.7,68.6s-66.7-30.8-66.7-68.6
				c0-11,2.5-21.6,7.2-31.1h-96.4c1.8,180.5,147.8,326.5,328.3,328.3V1056.7z"/>
		</g>
	</g>
	<path class="st5" d="M709.6,493.1c-185,0-335,150-335,335c0,185,150,335,335,335c185,0,335-150,335-335
		C1044.7,643.1,894.7,493.1,709.6,493.1z M965.3,986.9c-23.9,38.3-56.1,70.9-94.2,95.2l-36.9-64l-19.5,11.3l37,64.1
		c-38.8,20.8-82.6,33.3-129.2,35.3V1055h-22.6v73.9c-46.6-1.5-90.6-13.5-129.5-33.9l36.9-64l-19.5-11.3l-37,64.1
		c-38.3-23.9-70.9-56.1-95.2-94.2l64-36.9l-11.3-19.5l-64.1,37c-20.8-38.8-33.3-82.6-35.3-129.2h73.9v-22.6h-73.9
		c1.5-46.6,13.5-90.6,33.9-129.5l64,36.9l11.3-19.5l-64.1-37c23.9-38.3,56.1-70.9,94.2-95.2l36.9,64l19.5-11.3l-37-64.1
		c38.8-20.8,82.6-33.3,129.2-35.3v73.9h22.6v-73.9c46.6,1.5,90.6,13.5,129.5,33.9l-36.9,64l19.5,11.3l37-64.1
		c38.3,23.9,70.9,56.1,95.2,94.2l-64,36.9l11.3,19.5l64.1-37c20.8,38.8,33.3,82.6,35.3,129.2h-73.9v22.6h73.9
		c-1.5,46.6-13.5,90.6-33.9,129.5l-64-36.9l-11.3,19.5L965.3,986.9z"/>
	<path class="st5" d="M599.1,823.4c0.2,8.6,7.4,15.4,16,15.1l92.8-2.4c3.8-0.1,7.2-1.6,9.8-3.9c4.4-2.8,7.3-7.6,7.3-13.1V646.4
		c0-8.6-7-15.6-15.6-15.6s-15.6,7-15.6,15.6v158.9l-79.6,2.1C605.7,807.7,598.9,814.8,599.1,823.4z"/>
</g>
</svg>
