<?xml version="1.0" encoding="utf-8"?>
<!-- Generator: Adobe Illustrator 20.1.0, SVG Export Plug-In . SVG Version: 6.00 Build 0)  -->
<svg version="1.1" id="Calque_1" xmlns="http://www.w3.org/2000/svg" xmlns:xlink="http://www.w3.org/1999/xlink" x="0px" y="0px"
	 viewBox="0 0 283.5 283.5" style="enable-background:new 0 0 283.5 283.5;" xml:space="preserve">
<style type="text/css">
	.st0{fill:#FFFFFF;}
</style>
<path class="st0" d="M175.1,144.3l42.7-42.7c6.3-6.3,6.3-16.5,0-22.8l-5.7-5.7c-6.3-6.3-16.5-6.3-22.8,0l-42.7,42.7L104,73.2
	c-6.3-6.3-16.5-6.3-22.8,0l-5.7,5.7c-6.3,6.3-6.3,16.5,0,22.8l42.7,42.7L75.5,187c-6.3,6.3-6.3,16.5,0,22.8l5.7,5.7
	c6.3,6.3,16.5,6.3,22.8,0l42.7-42.7l42.7,42.7c6.3,6.3,16.5,6.3,22.8,0l5.7-5.7c6.3-6.3,6.3-16.5,0-22.8L175.1,144.3z"/>
</svg>
