<?xml version="1.0" encoding="utf-8"?>
<!-- Generator: Adobe Illustrator 20.1.0, SVG Export Plug-In . SVG Version: 6.00 Build 0)  -->
<svg version="1.1" id="Calque_1" xmlns="http://www.w3.org/2000/svg" xmlns:xlink="http://www.w3.org/1999/xlink" x="0px" y="0px"
	 viewBox="0 0 283.5 283.5" style="enable-background:new 0 0 283.5 283.5;" xml:space="preserve">
<style type="text/css">
	.st0{fill-rule:evenodd;clip-rule:evenodd;fill:#009872;}
</style>
<path class="st0" d="M160.2,123.8c-2.3-2.3-5-4.1-8-5.4c-2.9-1.2-6.1-1.9-9.5-1.9c-3.4,0-6.6,0.7-9.5,1.9c-3,1.3-5.8,3.1-8.1,5.4
	c-2.3,2.3-4.1,5-5.4,8c-1.2,2.9-1.9,6.1-1.9,9.5c0,3.4,0.7,6.6,1.9,9.5c1.3,3,3.1,5.8,5.4,8v0l0,0c2.3,2.3,5,4.1,8.1,5.4
	c2.9,1.2,6.1,1.9,9.5,1.9c3.4,0,6.6-0.7,9.5-1.9c3-1.3,5.8-3.1,8-5.4h0l0,0c2.3-2.3,4.1-5,5.4-8c1.2-2.9,1.9-6.1,1.9-9.5
	c0-3.4-0.7-6.6-1.9-9.5C164.3,128.8,162.5,126.1,160.2,123.8L160.2,123.8z M173.1,160.5l18.3,18.3l0.1,0.1c1.2,1.2,1.8,2.8,1.8,4.4
	c0,1.6-0.6,3.2-1.9,4.5l-2.3,2.3c-1.2,1.2-2.9,1.8-4.5,1.8c-1.6,0-3.2-0.6-4.5-1.8l0,0v0l-18.3-18.3c-5.6,3.5-12.1,5.5-19.2,5.5
	c-9.9,0-18.9-4-25.4-10.5c-6.5-6.5-10.5-15.5-10.5-25.4c0-9.9,4-18.9,10.5-25.5c6.5-6.5,15.5-10.5,25.4-10.5c9.9,0,18.9,4,25.5,10.5
	c6.5,6.5,10.5,15.5,10.5,25.5C178.6,148.4,176.6,155,173.1,160.5L173.1,160.5z"/>
</svg>
