<?xml version="1.0" encoding="utf-8"?>
<!-- Generator: Adobe Illustrator 20.1.0, SVG Export Plug-In . SVG Version: 6.00 Build 0)  -->
<svg version="1.1" id="Calque_1" xmlns="http://www.w3.org/2000/svg" xmlns:xlink="http://www.w3.org/1999/xlink" x="0px" y="0px"
	 viewBox="0 0 283.5 283.5" style="enable-background:new 0 0 283.5 283.5;" xml:space="preserve">
<style type="text/css">
	.st0{fill:#FFFFFF;}
</style>
<g>
	<path class="st0" d="M93.6,205.3c-10.5,0-20.7-4.1-28.3-11.7c-7.5-7.5-11.7-17.6-11.7-28.3s4.2-20.8,11.7-28.3l72-72
		c15.7-15.6,41.1-15.6,56.7,0c15.6,15.6,15.6,41.1,0,56.7l-29,28.5l-5.2-5.3l29-28.5c12.7-12.7,12.7-33.4,0-46.1s-33.4-12.7-46.1,0
		l-72,72c-6.1,6.1-9.5,14.3-9.5,23.1s3.4,17,9.5,23.1c7.7,7.7,18.8,11.1,29.6,8.8l1.5,7.3C99,205.1,96.3,205.3,93.6,205.3z"/>
	<path class="st0" d="M75.8,183.2c-10.1-10.1-10.2-25.9-0.2-36l2.6-2.6l5.3,5.3l-2.6,2.6c-7.1,7.1-7,18.3,0.2,25.4L75.8,183.2z"/>
	<path class="st0" d="M162.8,201.7c-37.4,0-65.5-12.5-65.5-29.2s28.2-29.2,65.5-29.2c37.3,0,65.5,12.6,65.5,29.2
		S200.1,201.7,162.8,201.7z M162.8,150.8c-34.2,0-58.1,11.4-58.1,21.7c0,10.3,23.8,21.7,58.1,21.7c34.2,0,58.1-11.4,58.1-21.7
		C220.9,162.3,197,150.8,162.8,150.8z"/>
	<path class="st0" d="M162.8,227.2c-32.2,0-65.5-10.9-65.5-29.2v-25.4h7.4V198c0,10.3,24.8,21.7,58.1,21.7s58.1-11.5,58.1-21.7
		v-25.4h7.4V198C228.3,216.2,195,227.2,162.8,227.2z"/>
	
		<rect x="126.1" y="168.8" transform="matrix(0.7875 -0.6163 0.6163 0.7875 -71.748 136.9945)" class="st0" width="73.4" height="7.4"/>
	
		<rect x="122.3" y="94.8" transform="matrix(0.707 -0.7073 0.7073 0.707 -51.9643 125.9649)" class="st0" width="7.4" height="61.7"/>
</g>
</svg>
