<?xml version="1.0" encoding="iso-8859-1"?>
<!-- Generator: Adobe Illustrator 18.0.0, SVG Export Plug-In . SVG Version: 6.00 Build 0)  -->
<!DOCTYPE svg PUBLIC "-//W3C//DTD SVG 1.1//EN" "http://www.w3.org/Graphics/SVG/1.1/DTD/svg11.dtd">
<svg xmlns="http://www.w3.org/2000/svg" xmlns:xlink="http://www.w3.org/1999/xlink" version="1.1" id="Capa_1" x="0px" y="0px" viewBox="0 0 437.984 437.984" style="enable-background:new 0 0 437.984 437.984;" xml:space="preserve" width="512px" height="512px">
<path d="M425.77,246.428c-4.859-6.5-9.128-11.928-14.157-17.28c-9.099-9.697-21.017-15.038-33.561-15.038  c-7.446,0-14.747,1.838-21.698,5.461c-15.037,7.836-27.035,19.409-35.638,34.363c-3.549,6.143-5.424,11.968-6.25,17.244  c-8.554-24.027-18.892-42.926-30.783-46.343l-52.311-15.856C319.772,208.979,270.236,0,185.181,0h-23.784  C62.065,0,31.34,208.979,115.203,208.979l-52.31,15.856C26.063,235.419,4.099,394.548,4.099,394.548  c-0.064,0.54-0.107,1.087-0.107,1.646c0,7.662,6.208,13.871,13.871,13.871h202.192c1.525,1.934,3.217,3.786,5.082,5.536  c5.361,5.039,10.79,9.308,17.293,14.169c10.991,8.214,22.789,8.214,26.667,8.214c2.06,0,4.038-0.093,5.716-0.184l0.503-0.031  c9.981-0.709,20.999-4.053,33.678-10.221c19.126-9.301,37.111-22.337,54.967-39.839c3.385-3.313,16.304-16.228,19.739-19.737  c17.512-17.866,30.547-35.851,39.849-54.978c6.169-12.682,9.513-23.698,10.223-33.681l0.032-0.526  C434.181,271.742,434.884,258.629,425.77,246.428z M208.75,221.085l-3.419,27.776c-0.06,0.485-0.195,0.959-0.4,1.401l-27.376,59.107  c-0.771,1.661-2.436,2.727-4.268,2.727c-1.831,0-3.497-1.064-4.267-2.727l-27.392-59.107c-0.207-0.444-0.341-0.919-0.401-1.404  l-3.406-27.778c-0.21-1.718,0.54-3.41,1.953-4.411c1.415-0.999,3.261-1.143,4.811-0.371c5.335,2.656,10.614,4.003,15.693,4.003  h26.02c5.077,0,10.356-1.346,15.69-4c1.549-0.771,3.397-0.628,4.811,0.372C208.212,217.672,208.962,219.368,208.75,221.085z   M230.656,131.821c-1.486,11.244-7.794,25.813-16.876,38.975c-11.499,16.679-22.278,24.145-27.858,24.145h-25.266  c-5.581,0-16.36-7.468-27.861-24.148c-9.079-13.158-15.387-27.724-16.873-38.96l-0.254-1.948l-4.564-2.966  c-1.334-0.868-2.14-2.351-2.14-3.942v-7.743c0-2.597,2.106-4.702,4.703-4.702h1.922V94.358c0-1.628,0.843-3.143,2.229-4  c1.386-0.856,3.115-0.935,4.573-0.208c7.228,3.605,16.878,4.022,23.508,4.022c4.476,0,8.967-0.223,12.929-0.423  c1.227-0.06,2.416-0.119,3.561-0.169c1.575-0.071,3.179-0.105,4.766-0.105c19.359,0,35.603,5.056,47.466,8.746  c5.198,1.616,9.302,2.895,12.288,3.291c2.337,0.313,4.082,2.306,4.082,4.662v0.355h1.921c2.597,0,4.703,2.106,4.703,4.702v7.743  c0,1.592-0.805,3.074-2.14,3.942l-4.564,2.967L230.656,131.821z M409.697,277.529l-0.007,0.115  c-0.493,6.932-3.082,15.132-7.914,25.064c-8.176,16.814-19.788,32.779-35.496,48.804c-3.226,3.296-16.094,16.165-19.391,19.391  c-16.031,15.714-31.996,27.326-48.805,35.498c-9.935,4.833-18.134,7.421-25.065,7.916l-0.118,0.005  c-1.426,0.078-2.95,0.148-4.433,0.148c-3.66,0-8.397-0.402-12.59-3.535c-5.861-4.381-10.701-8.178-15.265-12.467  c-8.001-7.506-9.802-17.693-4.818-27.247c5.728-10.996,14.231-19.793,25.262-26.14c4.256-2.459,8.274-3.657,12.284-3.657  c1.561,0,3.126,0.189,4.661,0.559c5.093,1.234,9.985,3.616,14.955,7.286c1.569,1.156,3.487,1.743,5.704,1.743  c2.699,0,5.622-0.927,7.623-2.417c14.526-10.828,26.854-23.156,37.682-37.682c2.129-2.859,3.816-9.073,0.676-13.329  c-3.67-4.97-6.053-9.862-7.289-14.962c-1.323-5.497-0.309-11.035,3.094-16.925c6.355-11.044,15.151-19.548,26.143-25.274  c3.562-1.857,7.208-2.801,10.835-2.801c6.064,0,11.741,2.637,16.412,7.614c4.295,4.568,8.09,9.408,12.471,15.268  C410.32,265.875,409.989,272.065,409.697,277.529z" fill="#4E5154"/>
<g>
</g>
<g>
</g>
<g>
</g>
<g>
</g>
<g>
</g>
<g>
</g>
<g>
</g>
<g>
</g>
<g>
</g>
<g>
</g>
<g>
</g>
<g>
</g>
<g>
</g>
<g>
</g>
<g>
</g>
</svg>
