<?xml version="1.0" encoding="utf-8"?>
<!-- Generator: Adobe Illustrator 19.1.1, SVG Export Plug-In . SVG Version: 6.00 Build 0)  -->
<svg version="1.1" id="Layer_1" xmlns="http://www.w3.org/2000/svg" xmlns:xlink="http://www.w3.org/1999/xlink" x="0px" y="0px"
	 viewBox="0 0 283 283" style="enable-background:new 0 0 283 283;" xml:space="preserve">
<polygon style="fill:#FFFFFF;stroke:#FFFFFF;stroke-miterlimit:10;" points="228.5,273.1 54,273.1 74.4,58 208.1,58 "/>
<path style="fill:#009672;" d="M170.6,180.9h-55.9c-0.6,0-1-0.4-1-1v-18.7c0-0.6,0.4-1,1-1h55.9c0.6,0,1,0.4,1,1v18.7
	C171.6,180.4,171.1,180.9,170.6,180.9z"/>
<path style="fill:#009672;" d="M132.3,198.5v-55.9c0-0.6,0.4-1,1-1H152c0.6,0,1,0.4,1,1v55.9c0,0.6-0.4,1-1,1h-18.7
	C132.7,199.5,132.3,199,132.3,198.5z"/>
<circle style="fill:none;stroke:#009672;stroke-width:2;stroke-miterlimit:10;" cx="141.9" cy="170.5" r="55"/>
<g>
	<polygon style="fill:#FFFFFF;stroke:#FFFFFF;stroke-miterlimit:10;" points="175.3,59 170.3,59 170.3,18.8 175.3,22.7 	"/>
	<polygon style="fill:#FFFFFF;stroke:#FFFFFF;stroke-miterlimit:10;" points="165.2,14.8 170.3,18.8 112.2,18.8 117.3,14.8 	"/>
	<polygon style="fill:#FFFFFF;stroke:#FFFFFF;stroke-miterlimit:10;" points="112.2,59 107.1,59 107.1,22.7 112.2,18.8 	"/>
</g>
</svg>
