<?xml version="1.0" encoding="utf-8"?>
<!-- Generator: Adobe Illustrator 20.1.0, SVG Export Plug-In . SVG Version: 6.00 Build 0)  -->
<svg version="1.1" id="Calque_1" xmlns="http://www.w3.org/2000/svg" xmlns:xlink="http://www.w3.org/1999/xlink" x="0px" y="0px"
	 viewBox="0 0 283.5 283.5" style="enable-background:new 0 0 283.5 283.5;" xml:space="preserve">
<style type="text/css">
	.st0{fill:#000000;stroke-width:40.5;stroke-miterlimit:50;}
</style>
<g>
	<g>
		<path class="st0" d="M118.4,142.6c-1.9,0.8-3.9,1.3-6.1,1.3h-1.3c-8.3,0-15-6.7-15-15V109l19.3,0c1-1.8,2.1-3.5,3.5-5.1l-22.8,0
			V83.9c0-8.3,6.7-15,15-15h1.3c8.3,0,15,6.7,15,15v12.8c1.6-0.9,3.3-1.7,5.1-2.3V83.9c0-11.1-9-20.1-20.1-20.1h-1.3
			c-11.1,0-20.1,9-20.1,20.1v45c0,11.1,9,20.1,20.1,20.1h1.3c3.6,0,6.9-0.9,9.8-2.6C120.8,145.2,119.5,144,118.4,142.6z"/>
		<path class="st0" d="M142.2,97.7c-14.2,0-25.7,11.5-25.7,25.7c0,14.2,11.5,25.7,25.7,25.7c14.2,0,25.7-11.5,25.7-25.7
			C168,109.2,156.4,97.7,142.2,97.7z M121.6,123.4c0-11.4,9.2-20.6,20.6-20.6c3.7,0,7.1,1,10.1,2.6l-24.8,32.3
			C123.9,134.1,121.6,129,121.6,123.4z M142.2,144c-3.9,0-7.6-1.1-10.7-3.1l24.9-32.5c4,3.8,6.4,9.1,6.4,14.9
			C162.8,134.8,153.6,144,142.2,144z"/>
	</g>
	<path class="st0" d="M210.3,249.4H63c-5.6,0-10.1-4.5-10.1-10.1V57c0-5.6,4.5-10.1,10.1-10.1h106.5v5.4H63c-2.6,0-4.7,2.1-4.7,4.7
		v182.3c0,2.5,2.1,4.7,4.7,4.7h147.3c2.5,0,4.7-2.1,4.7-4.7V97.8h5.4v141.5C220.4,244.8,215.8,249.4,210.3,249.4z"/>
	<path class="st0" d="M221.3,98h-42c-5.4,0-9.9-4.4-9.9-9.8V46.8L221.3,98z M177.6,66.3v21.9c0,0.9,0.8,1.7,1.7,1.7h22.1L177.6,66.3
		z"/>
	<rect x="85.1" y="162.9" class="st0" width="101.1" height="5.4"/>
	<rect x="85.1" y="182.9" class="st0" width="101.1" height="5.4"/>
	<rect x="84.4" y="206.8" class="st0" width="101.1" height="5.4"/>
</g>
</svg>
