<?xml version="1.0" encoding="utf-8"?>
<!-- Generator: Adobe Illustrator 20.1.0, SVG Export Plug-In . SVG Version: 6.00 Build 0)  -->
<svg version="1.1" id="Calque_1" xmlns="http://www.w3.org/2000/svg" xmlns:xlink="http://www.w3.org/1999/xlink" x="0px" y="0px"
	 viewBox="0 0 283.5 283.5" style="enable-background:new 0 0 283.5 283.5;" xml:space="preserve">
<style type="text/css">
	.st0{fill:#FFFFFF;}
</style>
<g>
	<path class="st0" d="M110.5,144.4c0.1,2.3,2,4.1,4.3,4.1l25-0.7c1,0,1.9-0.4,2.6-1.1c1.2-0.7,2-2,2-3.5V96.7c0-2.3-1.9-4.2-4.2-4.2
		c-2.3,0-4.2,1.9-4.2,4.2v42.8l-21.4,0.6C112.3,140.1,110.4,142.1,110.5,144.4z"/>
	<path class="st0" d="M219.5,143.8c0-1.9-0.1-3.7-0.2-5.6l-8.2,0c0.1,1.1,0.2,2.2,0.2,3.3l-17.7-0.1l0,5.4l17.7,0.1
		c-0.5,11.1-3.6,21.6-8.6,30.9l-15.3-8.9l-2.7,4.7l15.3,8.9c-5.8,9.1-13.7,16.8-22.9,22.5l-8.8-15.4l-4.7,2.7l8.8,15.4
		c-9.3,4.8-19.9,7.7-31,8l0.1-17.7l-5.4,0l-0.1,17.7c-11.1-0.5-21.6-3.6-30.9-8.6l8.9-15.3l-4.7-2.7l-8.9,15.3
		c-9.1-5.8-16.8-13.7-22.5-22.9l15.4-8.8l-2.7-4.7l-15.4,8.8c-4.8-9.3-7.7-19.9-8-31l17.7,0.1l0-5.4l-17.7-0.1
		c0.5-11.1,3.6-21.6,8.6-30.9l15.3,8.9l2.7-4.7l-15.3-8.9c5.8-9.1,13.7-16.8,22.9-22.5l8.8,15.4l4.7-2.7l-8.8-15.4
		c9.3-4.8,19.9-7.7,31-8l-0.1,17.7l5.4,0l0.1-17.7c1.1,0,2.1,0.1,3.2,0.2l0-8.2c-2.1-0.2-4.1-0.3-6.2-0.3
		c-44.3-0.2-80.3,35.6-80.5,79.9s35.6,80.3,79.9,80.5C183.3,223.8,219.4,188,219.5,143.8z"/>
	<g>
		<path class="st0" d="M177,118.9c0,0.1,0,0.2,0,0.3l-0.1,4.4c0,0.7,0.6,1.2,1.3,1.2h26.4c0.7,0,1.3-0.6,1.4-1.2l0.1-4.4
			c0-0.1,0-0.2,0-0.3c3-2.2,5.8-5.1,8.1-8.5c0,0.1,0,0.2,0.2,0.3c1.4,0.8,2.9,1.2,4.6,1.2h0c5,0,10.3-3.6,13.6-9.3
			c2.1-3.6,3.1-7.6,2.8-11.2c-0.3-3.9-2-6.9-4.9-8.5c-1.4-0.8-2.9-1.2-4.6-1.2c-0.9,0-1.9,0.1-2.8,0.4c0-0.8,0.1-1.6,0.1-2.5v-1.3
			h-63.1v1.3C159.9,96.6,166.8,111.5,177,118.9z M225.8,85.2c1,0,1.9,0.2,2.8,0.7c1.7,1,2.8,3,3,5.7c0.2,2.9-0.6,6.1-2.3,9.1
			c-2.6,4.5-6.8,7.5-10.4,7.5c-1,0-1.9-0.2-2.8-0.7c0,0-0.1-0.1-0.1-0.1c3.5-6.1,5.9-13.5,6.7-21.5
			C223.7,85.4,224.8,85.2,225.8,85.2z M162.5,80.7h57.9c0,2-0.2,4-0.4,6h-57.1C162.7,84.7,162.5,82.8,162.5,80.7z"/>
		<polygon class="st0" points="173.8,133.5 208.3,133.5 209.2,130.7 225.3,130.7 225.3,127.3 156.8,127.3 156.8,130.7 172.9,130.7 
					"/>
		<rect x="203.1" y="64.3" class="st0" width="3.2" height="11.3"/>
		<rect x="180" y="64.3" class="st0" width="3.2" height="11.3"/>
		<rect x="191.2" y="64.3" class="st0" width="3.2" height="11.3"/>
	</g>
</g>
</svg>
