<?xml version="1.0" encoding="utf-8"?>
<!-- Generator: Adobe Illustrator 20.1.0, SVG Export Plug-In . SVG Version: 6.00 Build 0)  -->
<svg version="1.1" id="Calque_1" xmlns="http://www.w3.org/2000/svg" xmlns:xlink="http://www.w3.org/1999/xlink" x="0px" y="0px"
	 viewBox="0 0 283.5 283.5" style="enable-background:new 0 0 283.5 283.5;" xml:space="preserve">
<style type="text/css">
	.st0{fill-rule:evenodd;clip-rule:evenodd;fill:#FFFFFF;}
</style>
<path class="st0" d="M168,154c-0.5-5.2-2.2-10.2-5.2-14.5c-5.9-8.4-17.1-14.4-34.8-14.1v15.9c0,0.9-0.7,1.6-1.6,1.6
	c-0.4,0-0.7-0.1-1-0.4l-47.3-31.8c-0.8-0.5-0.9-1.5-0.4-2.3c0.1-0.2,0.3-0.3,0.5-0.5L125.4,76c0.7-0.5,1.8-0.3,2.3,0.4
	c0.2,0.3,0.3,0.6,0.3,0.9h0v14.4h14.4c14.3,0,27.2,5.9,36.6,15.4c9.4,9.5,15.3,22.7,15.3,37c0,13.7-5.9,25.7-14.9,34.7
	c-9.8,9.8-23.3,16-36.8,17.1c-0.9,0.1-1.7-0.6-1.8-1.5c-0.1-0.9,0.5-1.6,1.4-1.8c11.6-2.4,20.2-11.9,24-23.1
	C167.8,164.6,168.5,159.2,168,154z"/>
</svg>
