<?xml version="1.0" encoding="utf-8"?>
<!-- Generator: Adobe Illustrator 20.1.0, SVG Export Plug-In . SVG Version: 6.00 Build 0)  -->
<svg version="1.1" id="Calque_1" xmlns="http://www.w3.org/2000/svg" xmlns:xlink="http://www.w3.org/1999/xlink" x="0px" y="0px"
	 viewBox="0 0 283.5 283.5" style="enable-background:new 0 0 283.5 283.5;" xml:space="preserve">
<style type="text/css">
	.st0{fill:#FFFFFF;}
</style>
<g>
	<path class="st0" d="M120.2,188l-11.7-13.3l-16.9,1.9l-1.7-1.9c0,0-9.9-10.8-16.6-18.4l-2.8-3.1l77.4-99.1l77,98.5l-14.3,22.4
		l-11.5-1.9l-16.3,10.9l-18.7,3.5l-24.1-4.4L120.2,188z M139.6,173l24.4,4.5l15.8-3l16.8-11.8l9.1,1.4l7-10.9l-64.7-82.9l-64.3,82.4
		c4.5,5,9.5,10.5,12,13.3l17-1.9l11.2,12.6L139.6,173z"/>
	<rect x="93.3" y="182.8" class="st0" width="10" height="7.1"/>
	<rect x="61.5" y="168.6" class="st0" width="10" height="7.1"/>
	<rect x="111.1" y="204.1" class="st0" width="10" height="7.1"/>
	<rect x="135.9" y="189.9" class="st0" width="10" height="7.1"/>
	<rect x="157.1" y="193.4" class="st0" width="10" height="7.1"/>
	<rect x="178.4" y="189.9" class="st0" width="10" height="7.1"/>
	<rect x="217.4" y="172.2" class="st0" width="10" height="7.1"/>
	<rect x="199.7" y="193.4" class="st0" width="10" height="7.1"/>
</g>
</svg>
