<?xml version="1.0" encoding="utf-8"?>
<!-- Generator: Adobe Illustrator 20.1.0, SVG Export Plug-In . SVG Version: 6.00 Build 0)  -->
<svg version="1.1" id="Calque_1" xmlns="http://www.w3.org/2000/svg" xmlns:xlink="http://www.w3.org/1999/xlink" x="0px" y="0px"
	 viewBox="0 0 283.5 283.5" style="enable-background:new 0 0 283.5 283.5;" xml:space="preserve">
<style type="text/css">
	.st0{fill:#FFFFFF;}
	.st1{fill:#4E5154;}
</style>
<g>
	<g>
		<path class="st0" d="M107.6,164.4v-16.6c0-3.6,2.9-6.5,6.5-6.5h21v-21c0-3.6,2.9-6.5,6.5-6.5h16.6c3.6,0,6.5,2.9,6.5,6.5v21h21
			c3.6,0,6.5,2.9,6.5,6.5v16.6c0,3.6-2.9,6.5-6.5,6.5h-21v21c0,3.6-2.9,6.5-6.5,6.5h-16.6c-3.6,0-6.5-2.9-6.5-6.5v-21h-21
			C110.5,170.9,107.6,168,107.6,164.4L107.6,164.4z"/>
		<path class="st1" d="M158.2,203.2h-16.6c-6.2,0-11.2-5.1-11.2-11.2v-16.3h-16.3c-6.2,0-11.2-5-11.2-11.2v-16.6
			c0-6.2,5-11.2,11.2-11.2h16.3v-16.3c0-6.2,5-11.2,11.2-11.2h16.6c6.2,0,11.2,5,11.2,11.2v16.3h16.3c6.2,0,11.2,5.1,11.2,11.2v16.6
			c0,6.2-5.1,11.2-11.2,11.2h-16.3v16.3C169.5,198.1,164.4,203.2,158.2,203.2z M114.1,146c-1,0-1.8,0.8-1.8,1.8v16.6
			c0,1,0.8,1.8,1.8,1.8h25.7v25.7c0,1,0.8,1.8,1.8,1.8h16.6c1,0,1.8-0.8,1.8-1.8v-25.7h25.7c1,0,1.8-0.8,1.8-1.8v-16.6
			c0-1-0.8-1.8-1.8-1.8H160v-25.7c0-1-0.8-1.8-1.8-1.8h-16.6c-1,0-1.8,0.8-1.8,1.8V146H114.1z"/>
	</g>
	<path class="st1" d="M248.4,98.6l-3.1,20.8c-0.5,3.4-3.4,5.8-6.7,5.8h0l-0.1,0c-0.3,0-0.6,0-0.9-0.1l-35.7-5.3
		c-3.7-0.6-6.3-4-5.8-7.8c2.9-19.7,8.9-22.7-16.9-27.6c-12.6-2.4-27-3.1-29.3-3.1l0,0H150h0h-0.1h0h-0.1l0,0
		c-2.3,0-16.7,0.7-29.3,3.1c-25.8,4.9-19.8,7.9-16.9,27.6c0.5,3.7-2,7.2-5.8,7.8l-35.7,5.3c-0.3,0-0.6,0.1-0.9,0.1l-0.1,0h0
		c-3.3,0-6.2-2.5-6.7-5.8l-3.1-20.8c-0.1-1-0.2-1.9-0.3-2.8c0.4-23.2,49.6-37.9,98.8-39.5c49.2,1.7,98.4,16.3,98.8,39.5
		C248.7,96.7,248.6,97.7,248.4,98.6L248.4,98.6z"/>
	<path class="st1" d="M208.8,230.2H91c-14.3,0-25.8-12.9-25.8-28.7v-15.2c0-6.2,4.9-21.5,15.3-51.5l13.4,4.6
		c-4.7,13.6-14.4,41.8-14.5,46.9v15.2c0,7.9,5.3,14.5,11.7,14.5h117.7c6.3,0,11.7-6.6,11.7-14.5v-15.2c0-4.9-8.9-32-13.7-46.6
		l13.3-4.8l-6.7,2.2l6.9-1.8c8.7,26.6,14.4,44.5,14.4,51v15.2C234.6,217.3,223,230.2,208.8,230.2z"/>
</g>
</svg>
