<?xml version="1.0" encoding="utf-8"?>
<svg id="Calque_1" style="enable-background:new 0 0 283.5 283.5;" x="0px" y="0px" viewBox="0 125 283 50" preserveAspectRatio="xMinYMin" xmlns="http://www.w3.org/2000/svg">
  <style type="text/css">
	.st0{fill:#ffffff;}
</style>
  <g>
    <path class="st0" d="M62.3,169.5h-2.7v-16c0-5.1-2.4-7.7-7.1-7.7c-2.3,0-4.1,0.7-5.4,2c-1.3,1.4-1.9,3.3-1.9,5.7v16h-2.7v-38.2h2.7&#10;&#9;&#9;v15.4c1.9-2.3,4.5-3.4,7.6-3.4c2.9,0,5.3,0.9,7,2.6c1.7,1.7,2.6,4.1,2.6,7.1V169.5z"/>
    <path class="st0" d="M91.6,157.2h-18c0,6.8,2.8,10.2,8.4,10.2c2.7,0,5.1-1.1,7.1-3.2l2,1.6c-2.6,2.6-5.8,4-9.3,4&#10;&#9;&#9;c-7.3,0-11-4.4-11-13.2c0-4.1,0.9-7.4,2.7-9.7c1.8-2.3,4.4-3.5,7.6-3.5c3.2,0,5.7,1.1,7.6,3.4c1.8,2.2,2.8,5.3,2.8,9.2V157.2z&#10;&#9;&#9; M88.8,155c-0.1-2-0.4-3.6-0.9-4.9c-0.5-1.3-1.4-2.3-2.6-3.1c-1.2-0.8-2.6-1.2-4.1-1.2c-1.5,0-2.9,0.4-4.1,1.2&#10;&#9;&#9;c-1.2,0.8-2.1,1.8-2.6,3.1c-0.5,1.3-0.8,2.9-0.9,4.9H88.8z"/>
    <path class="st0" d="M120.5,156.6c0,5.1-1.1,8.8-3.3,11c-1.5,1.5-3.6,2.3-6.3,2.3c-3.3,0-5.8-1.2-7.7-3.6v3.3h-2.7v-38.2h2.7V147&#10;&#9;&#9;c1.8-2.4,4.4-3.6,7.7-3.6c2.7,0,4.8,0.8,6.3,2.3C119.3,147.8,120.5,151.5,120.5,156.6z M117.7,156.6c0-3.3-0.4-5.8-1.3-7.5&#10;&#9;&#9;c-1.1-2.3-3.1-3.4-6-3.4c-2.9,0-4.9,1.1-6,3.4c-0.9,1.7-1.3,4.2-1.3,7.5c0,3.3,0.4,5.8,1.3,7.4c1.1,2.3,3.1,3.4,6,3.4&#10;&#9;&#9;c2.9,0,4.9-1.1,6-3.4C117.3,162.4,117.7,159.9,117.7,156.6z"/>
    <path class="st0" d="M148,169.5h-2.7v-3.3c-1.8,2.4-4.4,3.6-7.7,3.6c-2.7,0-4.8-0.8-6.3-2.3c-2.2-2.2-3.3-5.9-3.3-11&#10;&#9;&#9;c0-5.1,1.1-8.8,3.3-11c1.5-1.5,3.6-2.3,6.3-2.3c3.3,0,5.8,1.2,7.7,3.6v-15.7h2.7V169.5z M145.2,156.6c0-3.3-0.4-5.8-1.3-7.5&#10;&#9;&#9;c-1.1-2.3-3.1-3.4-6-3.4c-2.9,0-4.9,1.1-6,3.4c-0.9,1.7-1.3,4.2-1.3,7.5c0,3.3,0.4,5.8,1.3,7.4c1.1,2.3,3.1,3.4,6,3.4&#10;&#9;&#9;c2.9,0,4.9-1.1,6-3.4C144.8,162.4,145.2,159.9,145.2,156.6z"/>
    <path class="st0" d="M177.6,156.6c0,4.8-1.1,8.3-3.2,10.4c-1.9,1.9-4.3,2.8-7.2,2.8c-2.9,0-5.3-0.9-7.2-2.8&#10;&#9;&#9;c-2.1-2.1-3.2-5.6-3.2-10.4c0-4.8,1.1-8.3,3.2-10.4c1.9-1.9,4.3-2.8,7.2-2.8c2.9,0,5.3,0.9,7.2,2.8&#10;&#9;&#9;C176.5,148.3,177.6,151.8,177.6,156.6z M174.9,156.6c0-4.2-0.8-7.1-2.3-8.6c-1.5-1.5-3.3-2.3-5.4-2.3c-2.1,0-3.9,0.8-5.4,2.3&#10;&#9;&#9;c-1.5,1.5-2.3,4.4-2.3,8.6c0,4.2,0.8,7.1,2.3,8.6c1.5,1.5,3.3,2.3,5.4,2.3c2.1,0,3.9-0.8,5.4-2.3&#10;&#9;&#9;C174.1,163.7,174.9,160.8,174.9,156.6z"/>
    <path class="st0" d="M213.7,158.3c0,3.5-1.1,6.3-3.3,8.3c-2.2,2-5.1,3-8.6,3h-16.6v-38.2H201c3.9,0,6.9,1,9,3c2.1,2,3.2,4.7,3.2,8&#10;&#9;&#9;c0,3.1-1.4,5.7-4.2,7.6C212.1,151.9,213.7,154.7,213.7,158.3z M203.8,142.9c0-2.1-1.1-3.1-3.4-3.1h-5.8v6.2h5.8&#10;&#9;&#9;C202.7,146,203.8,144.9,203.8,142.9z M204.3,157.7c0-2.2-1.1-3.3-3.4-3.3h-6.3v6.7h6.3C203.2,161.1,204.3,160,204.3,157.7z"/>
    <path class="st0" d="M243.5,155.1c0,2.9-0.2,5.1-0.7,6.7c-0.4,1.6-1.3,3.1-2.5,4.3c-2.3,2.5-5.4,3.7-9.3,3.7c-3.9,0-7-1.2-9.3-3.7&#10;&#9;&#9;c-1.2-1.3-2-2.7-2.5-4.3c-0.4-1.6-0.7-3.8-0.7-6.7c0-2.9,0.2-5.1,0.7-6.7c0.4-1.6,1.3-3.1,2.5-4.3c2.3-2.5,5.4-3.7,9.3-3.7&#10;&#9;&#9;c3.9,0,7,1.2,9.3,3.7c1.2,1.3,2,2.7,2.5,4.3C243.3,150,243.5,152.2,243.5,155.1z M234.7,155.1c0-2.1-0.1-3.6-0.4-4.5&#10;&#9;&#9;c-0.5-1.6-1.6-2.4-3.3-2.4c-1.6,0-2.7,0.8-3.3,2.4c-0.3,0.8-0.4,2.3-0.4,4.5c0,2.1,0.1,3.6,0.4,4.5c0.5,1.6,1.6,2.4,3.3,2.4&#10;&#9;&#9;c1.6,0,2.7-0.8,3.3-2.4C234.6,158.7,234.7,157.2,234.7,155.1z"/>
    <path class="st0" d="M275.6,169.5h-10.6l-4.4-7.3l-4.3,7.3h-10.6l10-14.7l-9.7-14.1h10.6l3.9,7l4-7h10.6l-9.7,14.1L275.6,169.5z"/>
  </g>
  <g>
    <path class="st0" d="M37.2,150.1v6H24.5l6.5,3.4v3.8l-6.5,3.4h12.6v6H10.8v-5.8l11.6-5.4L10.8,156v-5.8H37.2z"/>
    <path class="st0" d="M10.8,127.1l15.6,7.3h10.8v6H26.4l-15.6,7.3v-6.5l9.5-3.8l-9.5-3.8V127.1z"/>
  </g>
</svg>