<?xml version="1.0" encoding="utf-8"?>
<!-- Generator: Adobe Illustrator 20.1.0, SVG Export Plug-In . SVG Version: 6.00 Build 0)  -->
<svg version="1.1" id="Calque_1" xmlns="http://www.w3.org/2000/svg" xmlns:xlink="http://www.w3.org/1999/xlink" x="0px" y="0px"
	 viewBox="0 0 283.5 283.5" style="enable-background:new 0 0 283.5 283.5;" xml:space="preserve">
<style type="text/css">
	.st0{fill:#FCC000;}
	.st1{fill:#61AED2;}
	.st2{fill:#EE7125;}
	.st3{fill:#EB575A;}
	.st4{fill:#FFFFFF;}
</style>
<g>
	<g>
		<path class="st0" d="M59.7,144.5l-2.1,3.1c-2.6,3.8-3.9,8.2-3.9,12.9c0,12.5,9.8,22.6,21.9,22.6s21.9-10.1,21.9-22.6
			c0-4.7-1.4-9.1-3.9-12.9l-2.1-3.1h50.8v-42.4c-3.7,1.8-7.8,2.8-12,2.8c-14.6,0-26.5-11.6-26.5-25.8s11.9-25.8,26.5-25.8
			c4.2,0,8.3,1,12,2.8V18.8C72.9,19.5,16.7,75.3,15.3,144.5H59.7z"/>
		<path class="st1" d="M146.2,63.2l-3.1-2.1c-3.8-2.6-8.3-3.9-12.9-3.9c-12.4,0-22.6,9.8-22.6,21.9c0,12.1,10.1,21.9,22.6,21.9
			c4.6,0,9.1-1.4,12.9-3.9l3.1-2.1v49.5h45.2c-1.5-3.5-2.2-7-2.2-10.7c0-14.6,11.6-26.5,25.8-26.5c14.2,0,25.8,11.9,25.8,26.5
			c0,3.7-0.7,7.2-2.2,10.7h33.2C270.5,75.7,215,20.2,146.2,18.8V63.2z"/>
		<path class="st2" d="M232.2,148.4l1.6-2.9c2.1-3.9,3.1-7.7,3.1-11.8c0-12.4-9.8-22.6-21.9-22.6c-12.1,0-21.9,10.1-21.9,22.6
			c0,4,1,7.9,3.1,11.8l1.6,2.9h-51.6v46.5c3.5-1.5,7-2.2,10.7-2.2c14.6,0,26.5,11.6,26.5,25.8c0,14.2-11.9,25.8-26.5,25.8
			c-3.7,0-7.2-0.7-10.7-2.2v33.2c69.2-1.4,125-57.6,125.6-126.9H232.2z"/>
		<path class="st3" d="M142.3,235.7l2.9,1.6c3.9,2.1,7.7,3.1,11.8,3.1c12.4,0,22.6-9.8,22.6-21.9c0-12.1-10.1-21.9-22.6-21.9
			c-4,0-7.9,1-11.8,3.1l-2.9,1.6v-52.9H98.6c1.8,3.7,2.8,7.8,2.8,12c0,14.6-11.6,26.5-25.8,26.5S49.8,175,49.8,160.4
			c0-4.2,1-8.3,2.8-12H15.3c0.7,69.8,57.1,126.3,127,127V235.7z"/>
	</g>
	<g>
		<path class="st4" d="M55.4,103.3c0,0.8,0.7,1.4,1.4,1.4l8.4-0.2c0.3,0,0.7-0.1,0.9-0.4c0.4-0.2,0.7-0.7,0.7-1.2V87.3
			c0-0.8-0.6-1.4-1.4-1.4c-0.8,0-1.4,0.6-1.4,1.4v14.4l-7.2,0.2C56,101.9,55.4,102.6,55.4,103.3z"/>
		<path class="st4" d="M92.1,103.1c0-0.6,0-1.3-0.1-1.9l-2.8,0c0,0.4,0.1,0.7,0.1,1.1l-6,0l0,1.8l5.9,0c-0.2,3.8-1.2,7.3-2.9,10.4
			l-5.2-3l-0.9,1.6l5.1,3c-2,3.1-4.6,5.6-7.7,7.6l-3-5.2l-1.6,0.9l3,5.2c-3.1,1.6-6.7,2.6-10.4,2.7l0-6l-1.8,0l0,5.9
			c-3.8-0.2-7.3-1.2-10.4-2.9l3-5.2l-1.6-0.9l-3,5.1c-3.1-2-5.6-4.6-7.6-7.7l5.2-3l-0.9-1.6l-5.2,3c-1.6-3.1-2.6-6.7-2.7-10.4l6,0
			l0-1.8l-5.9,0c0.2-3.8,1.2-7.3,2.9-10.4l5.2,3l0.9-1.6l-5.1-3c2-3.1,4.6-5.6,7.7-7.6l3,5.2l1.6-0.9l-3-5.2
			c3.1-1.6,6.7-2.6,10.4-2.7l0,6l1.8,0l0-5.9c0.4,0,0.7,0,1.1,0.1l0-2.8c-0.7-0.1-1.4-0.1-2.1-0.1c-14.9-0.1-27,12-27.1,26.9
			c-0.1,14.9,12,27,26.9,27.1C79.9,130.1,92.1,118,92.1,103.1z"/>
		<g>
			<path class="st4" d="M77.8,94.8C77.8,94.8,77.8,94.8,77.8,94.8l0,1.6c0,0.2,0.2,0.4,0.4,0.4h8.9c0.2,0,0.4-0.2,0.5-0.4l0-1.5
				c0,0,0-0.1,0-0.1c1-0.7,1.9-1.7,2.7-2.9c0,0,0,0.1,0.1,0.1c0.5,0.3,1,0.4,1.5,0.4h0c1.7,0,3.5-1.2,4.6-3.1c0.7-1.2,1-2.6,0.9-3.8
				c-0.1-1.3-0.7-2.3-1.6-2.9c-0.5-0.3-1-0.4-1.5-0.4c-0.3,0-0.6,0-0.9,0.1c0-0.3,0-0.6,0-0.8V81H72v0.4
				C72,87.2,74.4,92.3,77.8,94.8z M94.2,83.4c0.3,0,0.7,0.1,0.9,0.2c0.6,0.3,1,1,1,1.9c0.1,1-0.2,2.1-0.8,3.1
				c-0.9,1.5-2.3,2.5-3.5,2.5c-0.3,0-0.7-0.1-0.9-0.2c0,0,0,0,0,0c1.2-2,2-4.5,2.3-7.2C93.5,83.5,93.9,83.4,94.2,83.4z M72.9,81.9
				h19.5c0,0.7-0.1,1.4-0.1,2H73.1C73,83.3,72.9,82.6,72.9,81.9z"/>
			<polygon class="st4" points="76.7,99.7 88.3,99.7 88.6,98.7 94.1,98.7 94.1,97.6 71,97.6 71,98.7 76.4,98.7 			"/>
			<rect x="86.6" y="76.4" class="st4" width="1.1" height="3.8"/>
			<rect x="78.8" y="76.4" class="st4" width="1.1" height="3.8"/>
			<rect x="82.6" y="76.4" class="st4" width="1.1" height="3.8"/>
		</g>
	</g>
	<g>
		<path class="st4" d="M185.6,73.7c0.8,0,1.4-0.6,1.4-1.4V56.4c0-0.8-0.6-1.4-1.4-1.4c-0.8,0-1.4,0.6-1.4,1.4v15.8
			C184.2,73.1,184.8,73.7,185.6,73.7z"/>
		<path class="st4" d="M158,72.5c0.1,15.1,12.4,27.2,27.5,27.1c0.7,0,1.4,0,2.1-0.1l0-2.8c-0.4,0-0.7,0.1-1.1,0.1l0-6l-1.8,0l0,6
			c-3.8-0.1-7.4-1.1-10.6-2.7l3-5.2l-1.6-0.9l-3,5.2c-3.1-1.9-5.8-4.5-7.8-7.6l5.2-3l-0.9-1.6l-5.2,3c-1.7-3.1-2.8-6.7-2.9-10.5l6,0
			l0-1.8l-6,0c0.1-3.8,1.1-7.4,2.7-10.6l5.2,3l0.9-1.6l-5.2-3c1.9-3.1,4.5-5.8,7.6-7.8l3,5.2l1.6-0.9l-3-5.2
			c3.1-1.7,6.7-2.8,10.5-2.9l0,6l1.8,0l0-6c3.8,0.1,7.4,1.1,10.6,2.7l-3,5.2l1.6,0.9l3-5.2c3.1,1.9,5.8,4.5,7.8,7.6l-5.2,3l0.9,1.6
			l5.2-3c1.7,3.1,2.8,6.7,2.9,10.5l-6,0l0,1.8l6,0c0,0.4,0,0.7-0.1,1.1l2.8,0c0-0.6,0.1-1.3,0.1-1.9c-0.1-15.1-12.4-27.2-27.5-27.1
			C170,45.1,157.9,57.4,158,72.5z"/>
		<path class="st4" d="M223.5,75.8c-0.6,0-2.3-0.4-2.3,6.5c0,6,0.7,7.9,1.4,8.3l-0.3,6.9c0,0.3,0.5,0.6,1.1,0.6
			c0.6,0,1.1-0.3,1.1-0.6V96V84.3v-7.9C224.6,76.1,224.1,75.8,223.5,75.8z"/>
		<path class="st4" d="M195.9,77c0-0.6-0.6-1-0.6-0.9v5.4c0,0.3-0.2,0.5-0.4,0.5c-0.2,0-0.4-0.2-0.4-0.5v-5.4c0-0.1-0.7-0.1-0.7,0
			v5.4c0,0.3-0.2,0.5-0.4,0.5c-0.2,0-0.4-0.2-0.4-0.5v-5.4c0-0.1-0.6-0.1-0.6,0v5.4c0,0.3-0.2,0.5-0.4,0.5c-0.2,0-0.4-0.2-0.4-0.5
			v-5.4c0-0.1-0.6,0.3-0.6,0.9c0,0,0,2.5,0,4c0,1.6-0.4,3.5-0.4,3.5c0,0.6,2.1,1.6,2.1,1.6l-0.4,11.1c0,0.4,0.7,0.7,1.1,0.7
			c0.4,0,1.2-0.3,1.2-0.7l-0.4-11.1c0,0,2.1-1,2.1-1.6c0,0-0.3-1.7-0.3-3.6C195.9,79.2,195.9,77,195.9,77z"/>
		<path class="st4" d="M208.7,77.1c-5.7,0-10.3,4.6-10.3,10.3c0,5.7,4.6,10.3,10.3,10.3c5.7,0,10.3-4.6,10.3-10.3
			C219,81.7,214.4,77.1,208.7,77.1z M208.7,93.7c-3.5,0-6.3-2.8-6.3-6.3c0-3.5,2.8-6.3,6.3-6.3c3.5,0,6.3,2.8,6.3,6.3
			C215,90.9,212.2,93.7,208.7,93.7z"/>
	</g>
	<g>
		<path class="st4" d="M92.6,220.8c0,0.8,0.7,1.4,1.5,1.4l8.5-0.2c0.3,0,0.7-0.1,0.9-0.4c0.4-0.3,0.7-0.7,0.7-1.2v-15.8
			c0-0.8-0.6-1.4-1.4-1.4s-1.4,0.6-1.4,1.4v14.5l-7.3,0.2C93.2,219.3,92.6,220,92.6,220.8z"/>
		<path class="st4" d="M75.2,220.2c0,0.6,0,1.3,0.1,1.9l2.8,0c0-0.4,0-0.7-0.1-1.1l6,0.1l0-1.8l-6-0.1c0.2-3.8,1.3-7.3,3-10.5
			l5.2,3.1l0.9-1.6l-5.2-3.1c2-3.1,4.7-5.7,7.8-7.6l3,5.2l1.6-0.9l-2.9-5.2c3.2-1.6,6.8-2.6,10.5-2.6l-0.1,6l1.8,0l0.1-6
			c3.8,0.2,7.3,1.3,10.5,3l-3.1,5.2l1.6,0.9l3.1-5.2c3.1,2,5.7,4.7,7.6,7.8l-5.2,3l0.9,1.6l5.2-2.9c1.6,3.2,2.6,6.8,2.6,10.5l-6-0.1
			l0,1.8l6,0.1c-0.2,3.8-1.3,7.3-3,10.5l-5.2-3.1l-0.9,1.6l5.2,3.1c-2,3.1-4.7,5.7-7.8,7.6l-3-5.2l-1.6,0.9l2.9,5.2
			c-3.2,1.6-6.8,2.6-10.5,2.6l0.1-6l-1.8,0l-0.1,6c-0.4,0-0.7-0.1-1.1-0.1l0,2.8c0.7,0.1,1.4,0.1,2.1,0.1
			c15,0.2,27.3-11.9,27.5-26.9c0.2-15-11.9-27.3-26.9-27.5C87.6,193.1,75.3,205.1,75.2,220.2z"/>
		<path class="st4" d="M81,240.3v-0.9c0-0.3-1.8-0.6-4-0.6c-0.5,0-0.9,0-1.4,0v-5.3h-0.2c0,0,0,0,0,0c0,0,0,0,0-0.1c0,0,0,0,0-0.1
			c0,0,0,0,0-0.1c0,0,0,0,0-0.1c0,0,0,0,0-0.1c0,0,0,0,0-0.1c0,0,0,0,0-0.1c0,0,0,0,0-0.1c0,0,0,0,0-0.1c0,0,0,0,0-0.1
			c0,0,0,0,0-0.1c0,0,0,0,0-0.1c0,0,0,0,0-0.1c0,0,0,0,0-0.1c0,0,0,0,0-0.1c0,0,0,0,0-0.1c0,0,0,0,0-0.1c0,0,0,0,0,0c0,0,0,0,0-0.1
			c0,0,0,0,0,0c0,0,0,0,0-0.1c0,0,0,0,0,0c0,0,0,0,0-0.1c0,0,0,0,0,0c0,0,0,0,0-0.1c0,0,0,0,0,0c0,0,0,0,0-0.1c0,0,0,0,0,0
			c0,0,0,0,0-0.1c0,0,0,0,0,0c0,0,0,0,0-0.1c0,0,0,0,0,0c0,0,0,0,0-0.1c0,0,0,0,0,0c0,0,0,0,0-0.1c0,0,0,0,0,0c0,0,0,0,0-0.1
			c0,0,0,0,0,0c0,0,0,0,0-0.1c0,0,0,0,0,0c0,0,0,0,0-0.1c0,0,0,0,0,0s0,0,0-0.1c0,0,0,0,0,0c0,0,0,0,0-0.1c0,0,0,0,0,0
			c0,0,0,0,0-0.1c0,0,0,0,0,0c0,0,0,0,0-0.1c0,0,0,0,0,0c0,0,0,0,0-0.1c0,0,0,0,0,0c0,0,0,0,0-0.1c0,0,0,0,0,0c0,0,0,0,0-0.1
			c0,0,0,0,0,0c0,0,0,0,0-0.1c0,0,0,0,0,0c0,0,0,0,0-0.1c0,0,0,0,0,0c0,0,0,0,0-0.1c0,0,0,0,0,0c0,0,0,0,0-0.1c0,0,0,0,0,0
			c0,0,0,0,0-0.1c0,0,0,0,0,0c0,0,0,0,0-0.1c0,0,0,0,0,0c0,0,0,0,0-0.1c0,0,0,0,0,0c0,0,0,0,0-0.1c0,0,0,0,0,0c0,0,0,0,0-0.1
			c0,0,0,0,0,0c0,0,0,0,0-0.1c0,0,0,0,0,0c0,0,0,0,0-0.1c0,0,0,0,0,0s0,0,0-0.1c0,0,0,0,0,0c0,0,0,0,0-0.1c0,0,0,0,0,0
			c0,0,0,0,0-0.1c0,0,0,0,0,0c0,0,0,0,0-0.1c0,0,0,0,0,0c0,0,0,0,0-0.1c0,0,0,0,0.1,0c0,0,0,0,0-0.1c0,0,0,0,0.1,0c0,0,0,0,0-0.1
			c0,0,0,0,0.1,0s0,0,0-0.1c0,0,0,0,0.1,0c0,0,0,0,0-0.1c0,0,0,0,0.1,0c0,0,0,0,0-0.1c0,0,0,0,0.1,0c0,0,0,0,0-0.1c0,0,0,0,0.1,0
			c0,0,0,0,0-0.1c0,0,0,0,0.1,0c0,0,0,0,0-0.1c0,0,0,0,0.1,0c0,0,0,0,0-0.1c0,0,0,0,0.1,0c0,0,0,0,0-0.1c0,0,0,0,0.1,0c0,0,0,0,0,0
			c0,0,0,0,0.1,0c0,0,0,0,0,0c0,0,0,0,0.1,0c0,0,0,0,0,0c0,0,0,0,0.1,0c0,0,0,0,0,0c0,0,0,0,0.1,0c0,0,0,0,0,0c0,0,0,0,0.1,0
			c0,0,0,0,0,0c0,0,0,0,0.1,0c0,0,0,0,0,0c0,0,0,0,0.1,0c0,0,0,0,0,0c0,0,0,0,0.1,0s0,0,0,0c0,0,0,0,0.1,0c0,0,0,0,0,0
			c0,0,0,0,0.1,0c0,0,0,0,0,0c0,0,0,0,0.1,0c0,0,0,0,0,0c0,0,0,0,0.1,0c0,0,0,0,0,0c0,0,0,0,0.1,0c0,0,0,0,0,0c0,0,0,0,0.1,0
			c0,0,0,0,0,0c0,0,0,0,0.1,0c0,0,0,0,0,0c0,0,0,0,0.1,0c0,0,0,0,0,0c0,0,0,0,0.1,0c0,0,0,0,0,0c0,0,0,0,0,0l0.9,0.9
			c-0.5,1.5-0.2,3.2,1,4.4c0,0,1.5-1.1,3.1-2.7c1.5-1.5,2.7-3.1,2.7-3.1c-1.2-1.2-2.9-1.5-4.4-1l-1-1l-0.2,0.2l-0.1-0.1l0.2-0.2
			c0,0,0-0.1,0-0.2c0,0-0.1,0-0.2,0l-0.2,0.2l0,0l0.2-0.2c0,0,0-0.1,0-0.2c0,0-0.1,0-0.2,0l-0.2,0.2l0,0l0.2-0.2c0,0,0-0.1,0-0.2
			s-0.1,0-0.2,0l-0.2,0.2l0,0l0.2-0.2c0,0,0-0.1,0-0.2c0,0-0.1,0-0.2,0l-0.2,0.2l0,0l0.2-0.2c0,0,0-0.1,0-0.2c0,0-0.1,0-0.2,0
			l-0.2,0.2l0,0l0.1-0.1c0,0,0-0.1,0-0.2s-0.1,0-0.2,0l-0.2,0.2c0,0-0.1,0-0.1,0l0.1-0.1c0,0,0-0.1,0-0.2c0,0-0.1-0.1-0.2,0
			l-0.3,0.3l0,0l0.2-0.2c0,0,0-0.1,0-0.2c0,0-0.1-0.1-0.2,0l-0.2,0.2c-0.1-0.1-0.3-0.1-0.4,0l-1,1c-0.1,0.1-0.1,0.3,0,0.4l-0.2,0.2
			c0,0,0,0.1,0,0.2c0,0,0.1,0.1,0.2,0l0.2-0.2l0,0l-0.3,0.3c0,0,0,0.1,0,0.2c0,0,0.1,0.1,0.2,0l0.1-0.1c0,0,0,0.1,0,0.1l-0.2,0.2
			c0,0,0,0.1,0,0.2c0,0,0.1,0,0.2,0l0.1-0.1l0,0l-0.2,0.2c0,0,0,0,0,0c0,0,0,0-0.1,0c0,0,0,0,0,0.1c0,0-0.1,0-0.1,0c0,0,0,0,0,0.1
			c0,0-0.1,0-0.1,0c0,0,0,0,0,0.1c0,0-0.1,0-0.1,0c0,0,0,0,0,0.1c0,0-0.1,0-0.1,0s0,0,0,0.1c0,0-0.1,0-0.1,0c0,0,0,0,0,0.1
			c0,0-0.1,0-0.1,0c0,0,0,0,0,0.1c0,0-0.1,0-0.1,0c0,0,0,0,0,0.1c0,0-0.1,0-0.1,0c0,0,0,0,0,0.1c0,0-0.1,0-0.1,0c0,0,0,0,0,0.1
			c0,0-0.1,0-0.1,0c0,0,0,0,0,0.1c0,0-0.1,0-0.1,0c0,0,0,0,0,0.1c0,0-0.1,0-0.1,0c0,0,0,0,0,0.1c0,0-0.1,0-0.1,0c0,0,0,0,0,0.1
			c0,0-0.1,0-0.1,0c0,0,0,0,0,0.1c0,0-0.1,0-0.1,0c0,0,0,0,0,0.1c0,0-0.1,0-0.1,0c0,0,0,0,0,0.1c0,0-0.1,0-0.1,0c0,0,0,0,0,0.1
			c0,0-0.1,0-0.1,0c0,0,0,0,0,0.1c0,0-0.1,0-0.1,0c0,0,0,0,0,0.1c0,0-0.1,0-0.1,0c0,0,0,0.1,0,0.1c0,0-0.1,0-0.1,0c0,0,0,0.1,0,0.1
			c0,0-0.1,0-0.1,0c0,0,0,0.1,0,0.1c0,0-0.1,0-0.1,0c0,0,0,0.1,0,0.1c0,0-0.1,0-0.1,0c0,0,0,0.1,0,0.1c0,0-0.1,0-0.1,0
			c0,0,0,0.1,0,0.1c0,0-0.1,0-0.1,0c0,0,0,0.1,0,0.1c0,0-0.1,0-0.1,0c0,0,0,0.1,0,0.1c0,0-0.1,0-0.1,0c0,0,0,0.1,0,0.1
			c0,0-0.1,0-0.1,0c0,0,0,0.1,0,0.1c0,0-0.1,0-0.1,0c0,0,0,0.1,0,0.1c0,0-0.1,0-0.1,0c0,0,0,0.1,0,0.1c0,0-0.1,0-0.1,0
			c0,0,0,0.1,0,0.1c0,0-0.1,0-0.1,0c0,0,0,0.1,0,0.1c0,0-0.1,0-0.1,0c0,0,0,0.1,0,0.1c0,0-0.1,0-0.1,0c0,0,0,0.1,0,0.1
			c0,0-0.1,0-0.1,0c0,0,0,0.1,0,0.1c0,0-0.1,0-0.1,0c0,0,0,0.1,0,0.1c0,0-0.1,0-0.1,0c0,0,0,0.1,0,0.1c0,0-0.1,0-0.1,0
			c0,0,0,0.1,0,0.1c0,0-0.1,0-0.1,0s0,0.1,0,0.1c0,0-0.1,0-0.1,0c0,0,0,0.1,0,0.1c0,0-0.1,0-0.1,0c0,0,0,0.1,0,0.1c0,0-0.1,0-0.1,0
			c0,0,0,0.1,0,0.1c0,0-0.1,0-0.1,0c0,0,0,0.1,0,0.1c0,0,0,0-0.1,0c0,0,0,0.1,0,0.1c0,0,0,0-0.1,0.1c0,0,0,0.1,0,0.1
			c0,0,0,0-0.1,0.1c0,0,0,0.1,0,0.1c0,0,0,0-0.1,0.1c0,0,0,0.1,0,0.1c0,0,0,0-0.1,0.1c0,0,0,0.1,0,0.1c0,0,0,0-0.1,0.1
			c0,0,0,0.1,0,0.1c0,0,0,0-0.1,0.1c0,0,0,0.1,0,0.1c0,0,0,0-0.1,0.1c0,0,0,0.1,0,0.1c0,0,0,0-0.1,0.1c0,0,0,0.1,0,0.1
			c0,0,0,0-0.1,0.1c0,0,0,0.1,0,0.1c0,0,0,0,0,0.1c0,0,0,0.1,0,0.1c0,0,0,0,0,0.1c0,0,0,0.1,0,0.1c0,0,0,0,0,0.1s0,0.1,0,0.1
			c0,0,0,0,0,0.1c0,0,0,0.1,0,0.1c0,0,0,0,0,0.1c0,0,0,0.1,0,0.1c0,0,0,0,0,0.1c0,0,0,0.1,0,0.1c0,0,0,0,0,0.1c0,0,0,0.1,0,0.1
			c0,0,0,0,0,0.1c0,0,0,0.1,0,0.1c0,0,0,0,0,0.1c0,0,0,0.1,0,0.1c0,0,0,0,0,0.1c0,0,0,0.1,0,0.1c0,0,0,0,0,0.1s0,0.1,0,0.1
			c0,0,0,0,0,0.1c0,0,0,0.1,0,0.1c0,0,0,0,0,0h-0.4v5.6c-0.3,0.1-0.5,0.2-0.5,0.3v0.9c0,0.3,1.8,0.6,4,0.6
			C79.2,240.9,81,240.6,81,240.3z"/>
		<path class="st4" d="M85.6,237l-7.5,6.3l0.6-0.1c0,0,2.1-0.3,3.4-0.3c2.2,0.1,3.5,0.7,4.1,1.2c-0.8-0.3-2.3-0.8-4.8-0.7
			c-1,0-2.3,0.2-2.8,0.3l0,0l-0.7,0.7v0.4h0.5l8.3,0.4l10.8,0.1v0h0.1l0.1,0l0,0h0v-0.4h0l-0.7-3.8l-0.4-3.9l0-0.3l-0.2,0.2
			c0,0-0.3,0.2-1.3,0.2c-0.2,0-0.5,0-0.7,0c-0.3,0-0.7,0-1,0c-1.4,0-2.3,0.2-2.5,0.3c-0.3-0.1-1.7-0.6-2.7-0.5
			C87,237,85.7,237,85.6,237L85.6,237z M96.8,244c-0.6-0.3-2.1-0.9-3.7-1c-1.2-0.1-2.3,0.1-3.3,0.3c1-0.3,2.2-0.5,3.4-0.5
			c1.6,0.1,3,0.6,3.5,0.7L96.8,244z M90.7,237.8c0.2-0.1,1.1-0.3,2.4-0.3c0.3,0,0.7,0,1,0c0.3,0,0.5,0,0.7,0c0.7,0,1.1-0.1,1.3-0.2
			l0.5,4.5l0.1,1.4c-0.6-0.2-1.9-0.6-3.5-0.7c-2.7-0.2-5,1-6,1.6L90.7,237.8z M87.9,237.3L87.9,237.3c0.9,0,2.1,0.3,2.5,0.5
			l-3.6,6.5c-0.4-0.5-1.7-1.6-4.8-1.7c-0.1,0-0.2,0-0.3,0c-0.8,0-2,0.1-2.6,0.2l6.6-5.5C86,237.3,87.1,237.3,87.9,237.3z"/>
	</g>
	<g>
		<path class="st4" d="M213.4,195.4l-4.2,5.6c-0.5,0.6-0.3,1.5,0.3,1.9c0.6,0.5,1.5,0.3,1.9-0.3l4.9-6.5"/>
		<path class="st4" d="M216.5,166.1c-0.6,0-1.3,0-1.9,0.1v2.8c0.4,0,0.7-0.1,1.1-0.1v6h1.8v-6c3.8,0.2,7.3,1.2,10.5,2.9l-3,5.2
			l1.6,0.9l3-5.2c3.1,2,5.7,4.6,7.6,7.7l-5.2,3l0.9,1.6l5.2-3c1.7,3.2,2.6,6.7,2.8,10.5h-6v1.8h6c-0.2,3.8-1.2,7.3-2.9,10.5l-5.2-3
			l-0.9,1.6l5.2,3c-2,3.1-4.6,5.7-7.7,7.6l-3-5.2l-1.6,0.9l3,5.2c-3.2,1.7-6.7,2.6-10.5,2.8v-6h-1.8v6c-3.8-0.2-7.3-1.2-10.5-2.9
			l3-5.2l-1.6-0.9l-3,5.2c-3.1-2-5.7-4.6-7.6-7.7l5.2-3l-0.9-1.6l-5.2,3c-1.7-3.2-2.6-6.7-2.8-10.5h6v-1.8h-6c0-0.4,0-0.7,0.1-1.1
			h-2.8c-0.1,0.7-0.1,1.4-0.1,2.1c0,15,12.2,27.2,27.2,27.2c15,0,27.2-12.2,27.2-27.2C243.7,178.2,231.6,166.1,216.5,166.1z"/>
		<path class="st4" d="M214.9,197.3c0.8,0,1.4-0.6,1.4-1.4v-15.8c0-0.8-0.6-1.4-1.4-1.4c-0.8,0-1.4,0.6-1.4,1.4v15.8
			C213.4,196.7,214.1,197.3,214.9,197.3z"/>
		<path class="st4" d="M207.4,166.5c-0.6,0-2.3-0.4-2.3,6.5c0,6,0.7,7.9,1.4,8.3l-0.3,6.9c0,0.3,0.5,0.6,1.1,0.6
			c0.6,0,1.1-0.3,1.1-0.6v-1.5V175v-7.9C208.5,166.8,208,166.5,207.4,166.5z"/>
		<path class="st4" d="M179.8,167.7c0-0.6-0.6-1-0.6-0.9v5.4c0,0.3-0.2,0.5-0.4,0.5c-0.2,0-0.4-0.2-0.4-0.5v-5.4
			c0-0.1-0.7-0.1-0.7,0v5.4c0,0.3-0.2,0.5-0.4,0.5c-0.2,0-0.4-0.2-0.4-0.5v-5.4c0-0.1-0.6-0.1-0.6,0v5.4c0,0.3-0.2,0.5-0.4,0.5
			c-0.2,0-0.4-0.2-0.4-0.5v-5.4c0-0.1-0.6,0.3-0.6,0.9c0,0,0,2.5,0,4c0,1.6-0.4,3.5-0.4,3.5c0,0.6,2.1,1.6,2.1,1.6l-0.4,11.1
			c0,0.4,0.7,0.7,1.1,0.7c0.4,0,1.2-0.3,1.2-0.7l-0.4-11.1c0,0,2.1-1,2.1-1.6c0,0-0.3-1.7-0.3-3.6
			C179.7,169.9,179.8,167.7,179.8,167.7z"/>
		<path class="st4" d="M192.6,167.7c-5.7,0-10.3,4.6-10.3,10.3s4.6,10.3,10.3,10.3c5.7,0,10.3-4.6,10.3-10.3
			S198.3,167.7,192.6,167.7z M192.6,184.4c-3.5,0-6.3-2.8-6.3-6.3c0-3.5,2.8-6.3,6.3-6.3s6.3,2.8,6.3,6.3
			C198.9,181.6,196,184.4,192.6,184.4z"/>
	</g>
</g>
</svg>
